<?xml version="1.0" encoding="UTF-8" standalone="no"?>
<!-- Created with Inkscape (http://www.inkscape.org/) -->
<svg xmlns:inkscape="http://www.inkscape.org/namespaces/inkscape" xmlns:rdf="http://www.w3.org/1999/02/22-rdf-syntax-ns#" xmlns="http://www.w3.org/2000/svg" xmlns:xlink="http://www.w3.org/1999/xlink" xmlns:ns1="http://sozi.baierouge.fr" xmlns:cc="http://creativecommons.org/ns#" xmlns:sodipodi="http://sodipodi.sourceforge.net/DTD/sodipodi-0.dtd" xmlns:dc="http://purl.org/dc/elements/1.1/" id="svg2" xml:space="preserve" viewBox="0 0 177.26 131.42" version="1.1" inkscape:version="0.91 r13725">
  <defs id="defs6">
    <linearGradient id="linearGradient24" y2="69.717" gradientUnits="userSpaceOnUse" x2="-75.491" gradientTransform="matrix(.18984 .77712 .77712 -.18984 .0082815 105.12)" y1="69.717" x1="-95.718">
      <stop id="stop26" style="stop-color:#464bce" offset="0"/>
      <stop id="stop28" style="stop-color:#2f3468" offset=".71760"/>
      <stop id="stop30" style="stop-color:#262b3f" offset="1"/>
    </linearGradient>
    <linearGradient id="linearGradient44" y2="58.161" gradientUnits="userSpaceOnUse" x2="-78.278" gradientTransform="matrix(.16336 .78312 .78312 -.16336 .0078388 105.12)" y1="58.161" x1="-115.87">
      <stop id="stop46" style="stop-color:#42bccf" offset="0"/>
      <stop id="stop48" style="stop-color:#2e5669" offset=".7137"/>
      <stop id="stop50" style="stop-color:#262b3f" offset="1"/>
    </linearGradient>
    <linearGradient id="linearGradient64" y2="34.02" gradientUnits="userSpaceOnUse" x2="-63.49" gradientTransform="matrix(.0776 .79624 .79624 -.0776 .0083192 105.12)" y1="34.02" x1="-82.254">
      <stop id="stop66" style="stop-color:#585645" offset="0"/>
      <stop id="stop68" style="stop-color:#262b3f" offset="1"/>
    </linearGradient>
    <clipPath id="clipPath80">
      <path id="path82" d="m43.93 63.359c0.343-2.477 0.679-5.09 1-7.84 0.105-0.746-0.883-0.117-2.961 1.883-4.481 4.343-6.789 6.574-6.922 6.679-3.547 3.145-9.145 6.961-16.801 11.438l23.481-1.317c0.773-2.457 1.507-6.066 2.203-10.843z" inkscape:connector-curvature="0"/>
    </clipPath>
    <clipPath id="clipPath88">
      <path id="path90" d="m42.632-30.388h39.664v42.375h-39.664v-42.375z" inkscape:connector-curvature="0"/>
    </clipPath>
    <linearGradient id="linearGradient92" y2="-13.369" gradientUnits="userSpaceOnUse" x2="85.633" y1="-13.369" x1="48.698">
      <stop id="stop94" style="stop-color:#ffffff" offset="0"/>
      <stop id="stop96" style="stop-color:#ffffff;stop-opacity:0" offset="1"/>
    </linearGradient>
    <mask id="mask98">
      <g id="g100">
        <g id="g102" clip-path="url(#clipPath88)">
          <path id="path104" style="fill:url(#linearGradient92)" d="m42.632-30.388h39.664v42.375h-39.664v-42.375z" inkscape:connector-curvature="0"/>
        </g>
      </g>
    </mask>
    <linearGradient id="linearGradient108" y2="-13.369" gradientUnits="userSpaceOnUse" x2="85.633" y1="-13.369" x1="48.698">
      <stop id="stop110" style="stop-color:#13182e" offset="0"/>
      <stop id="stop112" style="stop-color:#262b3f" offset="1"/>
    </linearGradient>
    <clipPath id="clipPath120">
      <path id="path122" d="m136.37 80.882c-1.945-1.254-3.625-1.976-5.039-2.16-1.949-0.215-4.707-2.52-8.281-6.922-1.547-1.894-2.613-2.746-3.199-2.558-0.16 0.05-0.692 0.812-1.602 2.277-0.664 1.656-1.172 2.574-1.519 2.762-0.559 0.32-1.481-0.946-2.758-3.801-1.149-2.641-2.563-5.145-4.242-7.52-2.532-3.519-3.957-5.547-4.282-6.078-1.117-1.867-2.078-1.469-2.879 1.199-1.332 4.371-2.238 6.907-2.718 7.598-1.36 1.895-3.321 3.828-5.879 5.801-2.614 2.027-4.883 3.32-6.801 3.879l49.199 5.523z" inkscape:connector-curvature="0"/>
    </clipPath>
    <clipPath id="clipPath128">
      <path id="path130" d="m80.614-132.9h59.526v70.361h-59.526v-70.361z" inkscape:connector-curvature="0"/>
    </clipPath>
    <linearGradient id="linearGradient132" y2="-103.76" gradientUnits="userSpaceOnUse" x2="121.99" y1="-103.76" x1="91.327">
      <stop id="stop134" style="stop-color:#ffffff" offset="0"/>
      <stop id="stop136" style="stop-color:#ffffff;stop-opacity:0" offset="1"/>
    </linearGradient>
    <mask id="mask138">
      <g id="g140">
        <g id="g142" clip-path="url(#clipPath128)">
          <path id="path144" style="fill:url(#linearGradient132)" d="m80.614-132.9h59.526v70.361h-59.526v-70.361z" inkscape:connector-curvature="0"/>
        </g>
      </g>
    </mask>
    <linearGradient id="linearGradient148" y2="-103.76" gradientUnits="userSpaceOnUse" x2="121.99" y1="-103.76" x1="91.327">
      <stop id="stop150" style="stop-color:#13182e" offset="0"/>
      <stop id="stop152" style="stop-color:#262b3f" offset="1"/>
    </linearGradient>
    <clipPath id="clipPath160">
      <path id="path162" d="m71.328 75.281c-0.371-2.508-1.266-6.161-2.68-10.961-1.652-5.575-3.878-11.172-6.679-16.801-0.668-1.359-1.403-1.09-2.199 0.801-1.094 3.199-2.043 5.867-2.84 8-1.203 3.226-2.684 6.64-4.442 10.242-1.761 3.652-3.308 6.465-4.64 8.437 2.879 0.774 7.652 1.055 14.32 0.84 3.359-0.105 6.414-0.293 9.16-0.558z" inkscape:connector-curvature="0"/>
    </clipPath>
    <clipPath id="clipPath168">
      <path id="path170" d="m60.85-59.587h48.127v45.865h-48.127v-45.865z" inkscape:connector-curvature="0"/>
    </clipPath>
    <linearGradient id="linearGradient172" y2="-43.566" gradientUnits="userSpaceOnUse" x2="105.22" y1="-43.566" x1="67.911">
      <stop id="stop174" style="stop-color:#ffffff" offset="0"/>
      <stop id="stop176" style="stop-color:#ffffff;stop-opacity:0" offset="1"/>
    </linearGradient>
    <mask id="mask178">
      <g id="g180">
        <g id="g182" clip-path="url(#clipPath168)">
          <path id="path184" style="fill:url(#linearGradient172)" d="m60.85-59.587h48.127v45.865h-48.127v-45.865z" inkscape:connector-curvature="0"/>
        </g>
      </g>
    </mask>
    <linearGradient id="linearGradient188" y2="-43.566" gradientUnits="userSpaceOnUse" x2="105.22" y1="-43.566" x1="67.911">
      <stop id="stop190" style="stop-color:#13182e" offset="0"/>
      <stop id="stop192" style="stop-color:#262b3f" offset="1"/>
    </linearGradient>
    <clipPath id="clipPath206">
      <path id="path208" d="m7 46.132h25v28h-25v-28z" inkscape:connector-curvature="0"/>
    </clipPath>
    <mask id="mask210">
      <g id="g212">
        <g id="g214" clip-path="url(#clipPath206)">
          <path id="path216" style="fill:#000000;fill-opacity:.5" d="m7 46.132h25v28h-25v-28z" inkscape:connector-curvature="0"/>
        </g>
      </g>
    </mask>
    <clipPath id="clipPath222">
      <path id="path224" d="m7 46.132h25v28h-25v-28z" inkscape:connector-curvature="0"/>
    </clipPath>
    <clipPath id="clipPath226">
      <path id="path228" d="m7 47h25v28h-25v-28z" inkscape:connector-curvature="0"/>
    </clipPath>
    <clipPath id="clipPath230">
      <path id="path232" d="m23.77 67.867c3.039-2.613 4.972-5.719 5.796-9.32 2.082-9.067 2.309-12.719 0.684-10.957-0.988 1.066-1.867 1.945-2.641 2.64-1.066 0.907-2.586 2.079-4.562 3.52-3.68 2.613-6.348 4.746-8 6.398-0.399 0.375-0.852 1.332-1.359 2.879-0.692 2.243-1.266 3.856-1.719 4.84-0.668 1.524-1.496 2.934-2.481 4.242-0.558 0.719-1.238 1.532-2.039 2.438-0.293 0.348 0.574 0.215 2.598-0.399 1.176-0.375 3.242-1.039 6.203-2 2.746-0.906 5.25-2.332 7.52-4.281z" inkscape:connector-curvature="0"/>
    </clipPath>
    <clipPath id="clipPath234">
      <path id="path236" d="m8604.8 3292.1h46.918v46.682h-46.918v-46.682z" inkscape:connector-curvature="0"/>
    </clipPath>
    <linearGradient id="linearGradient238" y2="3315.7" gradientUnits="userSpaceOnUse" x2="8642.3" y1="3315.7" x1="8614.5">
      <stop id="stop240" style="stop-color:#ffffff" offset="0"/>
      <stop id="stop242" style="stop-color:#ffffff;stop-opacity:0" offset="1"/>
    </linearGradient>
    <mask id="mask244">
      <g id="g246">
        <g id="g248" clip-path="url(#clipPath234)">
          <path id="path250" style="fill:url(#linearGradient238)" d="m8604.8 3292.1h46.918v46.682h-46.918v-46.682z" inkscape:connector-curvature="0"/>
        </g>
      </g>
    </mask>
    <linearGradient id="linearGradient252" y2="3315.7" gradientUnits="userSpaceOnUse" x2="8642.3" y1="3315.7" x1="8614.5">
      <stop id="stop254" style="stop-color:#8361ce" offset="0"/>
      <stop id="stop256" style="stop-color:#8361ce" offset="1"/>
    </linearGradient>
    <clipPath id="clipPath288">
      <path id="path290" d="m32 15.132h18v30h-18v-30z" inkscape:connector-curvature="0"/>
    </clipPath>
    <mask id="mask292">
      <g id="g294">
        <g id="g296" clip-path="url(#clipPath288)">
          <path id="path298" style="fill:#000000;fill-opacity:.5" d="m32 15.132h18v30h-18v-30z" inkscape:connector-curvature="0"/>
        </g>
      </g>
    </mask>
    <clipPath id="clipPath304">
      <path id="path306" d="m32 15.132h18v30h-18v-30z" inkscape:connector-curvature="0"/>
    </clipPath>
    <clipPath id="clipPath308">
      <path id="path310" d="m32 16h18v30h-18v-30z" inkscape:connector-curvature="0"/>
    </clipPath>
    <clipPath id="clipPath312">
      <path id="path314" d="m36.328 45.309c2.906-0.106 5.238-0.719 7-1.84 2-1.305 3.453-2.801 4.36-4.481 1.066-2 1.695-4.773 1.878-8.32 0.161-3.199-0.117-6.277-0.839-9.238-0.454-1.762-1.012-3.309-1.68-4.641-0.586-1.148-1.52 0.32-2.801 4.399-0.558 1.816-1.449 4.082-2.68 6.8-0.398 0.907-0.796 2.188-1.199 3.84-0.558 2.426-0.961 4.039-1.199 4.84-0.426 1.52-1.414 3.039-2.961 4.562-0.824 0.825-1.879 1.84-3.16 3.04-0.664 0.8 0.426 1.144 3.281 1.039z" inkscape:connector-curvature="0"/>
    </clipPath>
    <clipPath id="clipPath316">
      <path id="path318" d="m2656.6 1940.2h32.3v42.373h-32.3v-42.373z" inkscape:connector-curvature="0"/>
    </clipPath>
    <linearGradient id="linearGradient320" y2="1961.4" gradientUnits="userSpaceOnUse" x2="2686.7" y1="1961.4" x1="2666.6">
      <stop id="stop322" style="stop-color:#ffffff" offset="0"/>
      <stop id="stop324" style="stop-color:#ffffff;stop-opacity:0" offset="1"/>
    </linearGradient>
    <mask id="mask326">
      <g id="g328">
        <g id="g330" clip-path="url(#clipPath316)">
          <path id="path332" style="fill:url(#linearGradient320)" d="m2656.6 1940.2h32.3v42.373h-32.3v-42.373z" inkscape:connector-curvature="0"/>
        </g>
      </g>
    </mask>
    <linearGradient id="linearGradient334" y2="1961.4" gradientUnits="userSpaceOnUse" x2="2686.7" y1="1961.4" x1="2666.6">
      <stop id="stop336" style="stop-color:#8361ce" offset="0"/>
      <stop id="stop338" style="stop-color:#8361ce" offset="1"/>
    </linearGradient>
    <clipPath id="clipPath370">
      <path id="path372" d="m31 40.132h18v23h-18v-23z" inkscape:connector-curvature="0"/>
    </clipPath>
    <mask id="mask374">
      <g id="g376">
        <g id="g378" clip-path="url(#clipPath370)">
          <path id="path380" style="fill:#000000;fill-opacity:.5" d="m31 40.132h18v23h-18v-23z" inkscape:connector-curvature="0"/>
        </g>
      </g>
    </mask>
    <clipPath id="clipPath386">
      <path id="path388" d="m31 40.132h18v23h-18v-23z" inkscape:connector-curvature="0"/>
    </clipPath>
    <clipPath id="clipPath390">
      <path id="path392" d="m31 41h18v23h-18v-23z" inkscape:connector-curvature="0"/>
    </clipPath>
    <clipPath id="clipPath394">
      <path id="path396" d="m32.246 59.348c-0.453 1.226-0.719 2.199-0.797 2.922-0.082 0.851 0.184 1.027 0.797 0.519 1.867-1.148 3.629-2.309 5.281-3.48 3.227-2.293 5.696-4.602 7.403-6.918 1.812-2.481 3.039-5.11 3.679-7.883 0.586-2.559 0.504-3.57-0.242-3.039-0.133 0.105-0.679 0.707-1.64 1.801-0.797 0.906-1.586 1.546-2.36 1.918-1.277 0.613-2.758 1.226-4.437 1.839-2.055 0.774-3.508 1.188-4.364 1.243-0.824 0.054-1.398 0.519-1.718 1.398-0.188 0.586-0.321 1.723-0.399 3.402-0.109 2.211-0.508 4.305-1.203 6.278z" inkscape:connector-curvature="0"/>
    </clipPath>
    <clipPath id="clipPath398">
      <path id="path400" d="m6793.5 3241.9h35.499v36.507h-35.499v-36.507z" inkscape:connector-curvature="0"/>
    </clipPath>
    <linearGradient id="linearGradient402" y2="3259.9" gradientUnits="userSpaceOnUse" x2="6820.5" y1="3259.9" x1="6798.8">
      <stop id="stop404" style="stop-color:#ffffff" offset="0"/>
      <stop id="stop406" style="stop-color:#ffffff;stop-opacity:0" offset="1"/>
    </linearGradient>
    <mask id="mask408">
      <g id="g410">
        <g id="g412" clip-path="url(#clipPath398)">
          <path id="path414" style="fill:url(#linearGradient402)" d="m6793.5 3241.9h35.499v36.507h-35.499v-36.507z" inkscape:connector-curvature="0"/>
        </g>
      </g>
    </mask>
    <linearGradient id="linearGradient416" y2="3259.9" gradientUnits="userSpaceOnUse" x2="6820.5" y1="3259.9" x1="6798.8">
      <stop id="stop418" style="stop-color:#505ccc" offset="0"/>
      <stop id="stop420" style="stop-color:#8361ce" offset="1"/>
    </linearGradient>
    <clipPath id="clipPath452">
      <path id="path454" d="m51 15.132h12v35h-12v-35z" inkscape:connector-curvature="0"/>
    </clipPath>
    <mask id="mask456">
      <g id="g458">
        <g id="g460" clip-path="url(#clipPath452)">
          <path id="path462" style="fill:#000000;fill-opacity:.30080" d="m51 15.132h12v35h-12v-35z" inkscape:connector-curvature="0"/>
        </g>
      </g>
    </mask>
    <clipPath id="clipPath468">
      <path id="path470" d="m51 15.132h12v35h-12v-35z" inkscape:connector-curvature="0"/>
    </clipPath>
    <clipPath id="clipPath472">
      <path id="path474" d="m51 16h12v35h-12v-35z" inkscape:connector-curvature="0"/>
    </clipPath>
    <clipPath id="clipPath476">
      <path id="path478" d="m52.77 41.188c0.238 1.199 0.531 3.492 0.878 6.878 0.188 1.657 0.481 2.254 0.879 1.801 0.43-0.48 1.067-1.465 1.922-2.961 0.504-0.879 1.414-2.465 2.719-4.758 1.227-2.027 2.121-4.187 2.68-6.48 0.695-2.668 0.828-5.172 0.398-7.52-0.398-2.214-1.359-4.48-2.879-6.8-1.012-1.52-2.144-2.907-3.398-4.16-0.614-0.614-1.016-0.266-1.199 1.039-0.348 2.32-0.657 3.8-0.922 4.441-0.719 1.52-1.2 2.535-1.442 3.039-0.371 0.773-0.558 1.629-0.558 2.563 0.082 1.41 0.105 2.453 0.082 3.117 0 1.148-0.203 2.281-0.602 3.402-0.371 1.066-0.293 2.238 0.238 3.52 0.696 1.304 1.094 2.265 1.204 2.879z" inkscape:connector-curvature="0"/>
    </clipPath>
    <clipPath id="clipPath480">
      <path id="path482" d="m1764.4 1401.3h23.382v45.857h-23.382v-45.857z" inkscape:connector-curvature="0"/>
    </clipPath>
    <linearGradient id="linearGradient484" y2="1424.7" gradientUnits="userSpaceOnUse" x2="1785" y1="1424.7" x1="1763.6">
      <stop id="stop486" style="stop-color:#ffffff" offset="0"/>
      <stop id="stop488" style="stop-color:#ffffff;stop-opacity:0" offset="1"/>
    </linearGradient>
    <mask id="mask490">
      <g id="g492">
        <g id="g494" clip-path="url(#clipPath480)">
          <path id="path496" style="fill:url(#linearGradient484)" d="m1764.4 1401.3h23.382v45.857h-23.382v-45.857z" inkscape:connector-curvature="0"/>
        </g>
      </g>
    </mask>
    <linearGradient id="linearGradient498" y2="1424.7" gradientUnits="userSpaceOnUse" x2="1785" y1="1424.7" x1="1763.6">
      <stop id="stop500" style="stop-color:#8361ce" offset="0"/>
      <stop id="stop502" style="stop-color:#8361ce" offset="1"/>
    </linearGradient>
    <clipPath id="clipPath534">
      <path id="path536" d="m46 2.1322h8v20h-8v-20z" inkscape:connector-curvature="0"/>
    </clipPath>
    <mask id="mask538">
      <g id="g540">
        <g id="g542" clip-path="url(#clipPath534)">
          <path id="path544" style="fill:#000000;fill-opacity:.5" d="m46 2.1322h8v20h-8v-20z" inkscape:connector-curvature="0"/>
        </g>
      </g>
    </mask>
    <clipPath id="clipPath550">
      <path id="path552" d="m46 2.1322h8v20h-8v-20z" inkscape:connector-curvature="0"/>
    </clipPath>
    <clipPath id="clipPath554">
      <path id="path556" d="m46 3h8v20h-8v-20z" inkscape:connector-curvature="0"/>
    </clipPath>
    <clipPath id="clipPath558">
      <path id="path560" d="m51.328 22.793c0.348-0.883 0.707-1.988 1.078-3.32 0.75-2.696 1.227-5.227 1.442-7.602 0.242-2.531-0.387-4.707-1.879-6.519-1.199-1.442-2.403-2.2-3.602-2.282-0.824-0.05-1.32 0.254-1.48 0.922-0.16 0.586-0.067 1.52 0.281 2.801 0.266 0.961 0.398 1.758 0.398 2.398-0.027 0.856-0.027 1.747 0 2.68 0.082 1.309 0.188 2.149 0.321 2.52 0.027 0.109 0.414 0.906 1.16 2.402 0.855 1.707 1.348 2.746 1.48 3.117 0.348 0.856 0.614 1.817 0.801 2.883z" inkscape:connector-curvature="0"/>
    </clipPath>
    <clipPath id="clipPath562">
      <path id="path564" d="m-575.94-641.82h11.808v25.667h-11.808v-25.667z" inkscape:connector-curvature="0"/>
    </clipPath>
    <linearGradient id="linearGradient566" y2="-629.12" gradientUnits="userSpaceOnUse" x2="-560.32" y1="-629.12" x1="-577.34">
      <stop id="stop568" style="stop-color:#ffffff" offset="0"/>
      <stop id="stop570" style="stop-color:#ffffff;stop-opacity:0" offset="1"/>
    </linearGradient>
    <mask id="mask572">
      <g id="g574">
        <g id="g576" clip-path="url(#clipPath562)">
          <path id="path578" style="fill:url(#linearGradient566)" d="m-575.94-641.82h11.808v25.667h-11.808v-25.667z" inkscape:connector-curvature="0"/>
        </g>
      </g>
    </mask>
    <linearGradient id="linearGradient580" y2="-629.12" gradientUnits="userSpaceOnUse" x2="-560.32" y1="-629.12" x1="-577.34">
      <stop id="stop582" style="stop-color:#8361ce" offset="0"/>
      <stop id="stop584" style="stop-color:#8361ce" offset="1"/>
    </linearGradient>
    <clipPath id="clipPath616">
      <path id="path618" d="m57 3.1322h16v32h-16v-32z" inkscape:connector-curvature="0"/>
    </clipPath>
    <mask id="mask620">
      <g id="g622">
        <g id="g624" clip-path="url(#clipPath616)">
          <path id="path626" style="fill:#000000;fill-opacity:.30080" d="m57 3.1322h16v32h-16v-32z" inkscape:connector-curvature="0"/>
        </g>
      </g>
    </mask>
    <clipPath id="clipPath632">
      <path id="path634" d="m57 3.1322h16v32h-16v-32z" inkscape:connector-curvature="0"/>
    </clipPath>
    <clipPath id="clipPath636">
      <path id="path638" d="m57 4h16v32h-16v-32z" inkscape:connector-curvature="0"/>
    </clipPath>
    <clipPath id="clipPath640">
      <path id="path642" d="m68.648 34.746c0.907-1.41 1.575-3.437 2-6.078 0.266-1.602 0.719-3.668 1.36-6.199 0.293-2.16-0.067-4.266-1.078-6.321-1.203-2.48-2.535-4.492-4-6.039-1.496-1.547-3.282-2.828-5.364-3.839-1.972-0.961-3.211-1.387-3.718-1.282-0.453 0.078-0.547 0.68-0.282 1.801 0.454 1.734 0.817 4 1.082 6.801 0.133 1.277 0.52 2.531 1.161 3.758 1.011 1.574 1.867 2.945 2.558 4.121 1.414 2.265 2.801 6.437 4.16 12.519 0.426 2 1.133 2.254 2.121 0.758z" inkscape:connector-curvature="0"/>
    </clipPath>
    <clipPath id="clipPath644">
      <path id="path646" d="m-1088.5-1293.8h25.564v42.469h-25.564v-42.469z" inkscape:connector-curvature="0"/>
    </clipPath>
    <linearGradient id="linearGradient648" y2="-1272.5" gradientUnits="userSpaceOnUse" x2="-1061.3" y1="-1272.5" x1="-1085.6">
      <stop id="stop650" style="stop-color:#ffffff" offset="0"/>
      <stop id="stop652" style="stop-color:#ffffff;stop-opacity:0" offset="1"/>
    </linearGradient>
    <mask id="mask654">
      <g id="g656">
        <g id="g658" clip-path="url(#clipPath644)">
          <path id="path660" style="fill:url(#linearGradient648)" d="m-1088.5-1293.8h25.564v42.469h-25.564v-42.469z" inkscape:connector-curvature="0"/>
        </g>
      </g>
    </mask>
    <linearGradient id="linearGradient662" y2="-1272.5" gradientUnits="userSpaceOnUse" x2="-1061.3" y1="-1272.5" x1="-1085.6">
      <stop id="stop664" style="stop-color:#8361ce" offset="0"/>
      <stop id="stop666" style="stop-color:#8361ce" offset="1"/>
    </linearGradient>
    <clipPath id="clipPath698">
      <path id="path700" d="m62 34.132h5v11h-5v-11z" inkscape:connector-curvature="0"/>
    </clipPath>
    <mask id="mask702">
      <g id="g704">
        <g id="g706" clip-path="url(#clipPath698)">
          <path id="path708" style="fill:#000000;fill-opacity:.30080" d="m62 34.132h5v11h-5v-11z" inkscape:connector-curvature="0"/>
        </g>
      </g>
    </mask>
    <clipPath id="clipPath714">
      <path id="path716" d="m62 34.132h5v11h-5v-11z" inkscape:connector-curvature="0"/>
    </clipPath>
    <clipPath id="clipPath718">
      <path id="path720" d="m62 35h5v11h-5v-11z" inkscape:connector-curvature="0"/>
    </clipPath>
    <clipPath id="clipPath722">
      <path id="path724" d="m63.449 45.188c0.16 0.402 0.453 0.546 0.879 0.441 0.508-0.133 0.973-0.613 1.399-1.441 0.402-0.774 0.535-1.708 0.402-2.801-0.055-0.641-0.242-1.68-0.563-3.117-0.238-1.336-0.476-2.243-0.718-2.723-0.293-0.559-0.536-0.32-0.719 0.723-0.188 1.117-0.375 1.918-0.563 2.398-0.16 0.453-0.504 1.121-1.039 2-0.453 0.719-0.48 1.586-0.078 2.602 0.239 0.558 0.574 1.199 1 1.918z" inkscape:connector-curvature="0"/>
    </clipPath>
    <clipPath id="clipPath726">
      <path id="path728" d="m-130.9-145.8h6.4717v13.849h-6.4717v-13.849z" inkscape:connector-curvature="0"/>
    </clipPath>
    <linearGradient id="linearGradient730" y2="-138.93" gradientUnits="userSpaceOnUse" x2="-124.05" y1="-138.93" x1="-137.92">
      <stop id="stop732" style="stop-color:#ffffff" offset="0"/>
      <stop id="stop734" style="stop-color:#ffffff;stop-opacity:0" offset="1"/>
    </linearGradient>
    <mask id="mask736">
      <g id="g738">
        <g id="g740" clip-path="url(#clipPath726)">
          <path id="path742" style="fill:url(#linearGradient730)" d="m-130.9-145.8h6.4717v13.849h-6.4717v-13.849z" inkscape:connector-curvature="0"/>
        </g>
      </g>
    </mask>
    <linearGradient id="linearGradient744" y2="-138.93" gradientUnits="userSpaceOnUse" x2="-124.05" y1="-138.93" x1="-137.92">
      <stop id="stop746" style="stop-color:#6961ce" offset="0"/>
      <stop id="stop748" style="stop-color:#8361ce" offset="1"/>
    </linearGradient>
    <clipPath id="clipPath780">
      <path id="path782" d="m68 30.132h18v40h-18v-40z" inkscape:connector-curvature="0"/>
    </clipPath>
    <mask id="mask784">
      <g id="g786">
        <g id="g788" clip-path="url(#clipPath780)">
          <path id="path790" style="fill:#000000;fill-opacity:.30080" d="m68 30.132h18v40h-18v-40z" inkscape:connector-curvature="0"/>
        </g>
      </g>
    </mask>
    <clipPath id="clipPath796">
      <path id="path798" d="m68 30.132h18v40h-18v-40z" inkscape:connector-curvature="0"/>
    </clipPath>
    <clipPath id="clipPath800">
      <path id="path802" d="m68 31h18v40h-18v-40z" inkscape:connector-curvature="0"/>
    </clipPath>
    <clipPath id="clipPath804">
      <path id="path806" d="m76.008 70.867c1.226-0.371 2.586-1.465 4.082-3.277 3.57-4.43 5.222-8.828 4.957-13.203-0.238-4.106-0.879-7.653-1.918-10.641-0.856-2.398-2.176-4.934-3.961-7.598-1.867-2.828-3.055-4.402-3.559-4.718-0.828-0.535-1.453 0.316-1.882 2.558-0.399 2.028-0.957 3.813-1.68 5.36-0.906 1.707-1.613 3.148-2.117 4.32-0.618 1.414-1.028 3.172-1.242 5.281-0.266 2.985-0.415 4.531-0.442 4.641-0.211 1.039 0.414 3.41 1.883 7.117 1.945 4.934 3.012 7.723 3.199 8.359 0.426 1.629 1.32 2.227 2.68 1.801z" inkscape:connector-curvature="0"/>
    </clipPath>
    <clipPath id="clipPath808">
      <path id="path810" d="m-0.2599-49.985h22.5v50h-22.5v-50z" inkscape:connector-curvature="0"/>
    </clipPath>
    <linearGradient id="linearGradient812" y2="-24.813" gradientUnits="userSpaceOnUse" x2="25.375" y1="-24.813" x1="-7.875">
      <stop id="stop814" style="stop-color:#ffffff" offset="0"/>
      <stop id="stop816" style="stop-color:#ffffff;stop-opacity:0" offset="1"/>
    </linearGradient>
    <mask id="mask818">
      <g id="g820">
        <g id="g822" clip-path="url(#clipPath808)">
          <path id="path824" style="fill:url(#linearGradient812)" d="m-0.2599-49.985h22.5v50h-22.5v-50z" inkscape:connector-curvature="0"/>
        </g>
      </g>
    </mask>
    <linearGradient id="linearGradient826" y2="-24.813" gradientUnits="userSpaceOnUse" x2="25.375" y1="-24.813" x1="-7.875">
      <stop id="stop828" style="stop-color:#6961ce" offset="0"/>
      <stop id="stop830" style="stop-color:#8361ce" offset="1"/>
    </linearGradient>
    <clipPath id="clipPath862">
      <path id="path864" d="m46 49.132h7v20h-7v-20z" inkscape:connector-curvature="0"/>
    </clipPath>
    <mask id="mask866">
      <g id="g868">
        <g id="g870" clip-path="url(#clipPath862)">
          <path id="path872" style="fill:#000000;fill-opacity:.30080" d="m46 49.132h7v20h-7v-20z" inkscape:connector-curvature="0"/>
        </g>
      </g>
    </mask>
    <clipPath id="clipPath878">
      <path id="path880" d="m46 49.132h7v20h-7v-20z" inkscape:connector-curvature="0"/>
    </clipPath>
    <clipPath id="clipPath882">
      <path id="path884" d="m46 50h7v20h-7v-20z" inkscape:connector-curvature="0"/>
    </clipPath>
    <clipPath id="clipPath886">
      <path id="path888" d="m46.328 66.348c-0.293 1.707-0.348 2.679-0.16 2.922 0.215 0.292 0.84-0.016 1.879-0.922 1.226-1.094 2.308-2.653 3.242-4.68 1.094-2.348 1.613-4.652 1.559-6.922-0.055-2.316-0.465-4.144-1.239-5.476-0.746-1.254-1.269-1.297-1.562-0.122-0.371 1.52-1.266 3.786-2.68 6.801-0.48 1.012-0.758 2.465-0.84 4.36-0.132 2.664-0.199 4.011-0.199 4.039z" inkscape:connector-curvature="0"/>
    </clipPath>
    <clipPath id="clipPath890">
      <path id="path892" d="m3503.1 2365.7h17.246v26.468h-17.246v-26.468z" inkscape:connector-curvature="0"/>
    </clipPath>
    <linearGradient id="linearGradient894" y2="2379.4" gradientUnits="userSpaceOnUse" x2="3520.9" y1="2379.4" x1="3503.8">
      <stop id="stop896" style="stop-color:#ffffff" offset="0"/>
      <stop id="stop898" style="stop-color:#ffffff;stop-opacity:0" offset="1"/>
    </linearGradient>
    <mask id="mask900">
      <g id="g902">
        <g id="g904" clip-path="url(#clipPath890)">
          <path id="path906" style="fill:url(#linearGradient894)" d="m3503.1 2365.7h17.246v26.468h-17.246v-26.468z" inkscape:connector-curvature="0"/>
        </g>
      </g>
    </mask>
    <linearGradient id="linearGradient908" y2="2379.4" gradientUnits="userSpaceOnUse" x2="3520.9" y1="2379.4" x1="3503.8">
      <stop id="stop910" style="stop-color:#6961ce" offset="0"/>
      <stop id="stop912" style="stop-color:#8361ce" offset="1"/>
    </linearGradient>
  </defs>
  <g id="g10" transform="matrix(1.25 0 0 -1.25 0 131.42)">
    <g id="g12">
      <g id="g14">
        <g id="g16">
          <g id="g22">
            <path id="path32" style="fill-rule:evenodd;fill:url(#linearGradient24)" d="m36.93 43.242c0.293-1.547 1-3.016 2.117-4.403 0.641-0.797 1.734-1.972 3.281-3.519 0.934-0.985 1.559-1.785 1.879-2.399 0.32-0.586 0.441-1.027 0.359-1.32-0.05-0.215-0.254-0.641-0.597-1.281-0.774-1.785-1.36-3.758-1.762-5.918-0.105-0.508-0.199-1.453-0.277-2.84-0.055-1.203-0.188-2.149-0.403-2.84-0.05-0.215-0.215-0.707-0.48-1.48-0.211-0.586-0.344-1.094-0.399-1.52-0.027-0.187-0.054-0.762-0.082-1.723-0.027-0.691-0.117-1.226-0.277-1.597-0.242 0.32-0.387 0.8-0.441 1.441-0.028 0.746-0.067 1.277-0.121 1.598-0.024 0.32-0.133 0.785-0.321 1.402-0.16 0.613-0.265 1.078-0.316 1.399-0.028 0.347 0.012 0.812 0.117 1.398 0.105 0.641 0.16 1.082 0.16 1.32-0.027 0.453-0.187 0.84-0.48 1.16-0.504 0.508-0.813 0.868-0.918 1.082-0.375 0.641-0.563 1.52-0.563 2.641-0.023 1.25-0.133 2.133-0.316 2.637-0.16 0.43-0.254 0.855-0.281 1.281 0 0.508-0.016 0.934-0.039 1.281-0.028 0.453-0.188 0.785-0.481 1-0.402 0.293-0.668 0.559-0.801 0.801-0.586 1.199-0.586 2.934 0 5.199 0.801 2.477 1.282 4.211 1.442 5.2z" inkscape:connector-curvature="0"/>
          </g>
        </g>
      </g>
      <g id="g34">
        <g id="g36">
          <g id="g42">
            <path id="path52" style="fill-rule:evenodd;fill:url(#linearGradient44)" d="m29.246 47.679c0.641-0.453 1.121-0.945 1.442-1.48 0.535-0.825 1.308-2.133 2.32-3.918 0.453-0.746 1.492-2.082 3.121-4 1.332-1.575 2.266-2.973 2.801-4.2 0.293-0.695 0.105-1.839-0.563-3.441-0.851-2.027-1.293-3.16-1.32-3.398-0.266-1.79-0.438-3.723-0.52-5.801-0.078-2.16-0.226-4.696-0.437-7.602-0.242-3.094-0.442-4.984-0.602-5.679-0.16-0.641-0.332 0.082-0.519 2.16 0 0.027-0.121 1.668-0.36 4.922-0.136 1.597-0.214 2.515-0.242 2.757-0.105 0.828-0.32 1.481-0.64 1.961-0.266 0.426-0.465 1.239-0.598 2.438-0.106 1.226-0.199 1.988-0.281 2.281-0.106 0.852-0.215 1.547-0.321 2.082-0.187 1.012-0.425 1.598-0.718 1.758-0.215 0.133-0.36 0.574-0.442 1.32 0 0.801-0.027 1.321-0.078 1.559-0.187 0.961-0.641 2.094-1.359 3.402l-0.403 0.797c-0.187 0.457-0.215 1.242-0.078 2.363 0.028 0.16 0.133 0.598 0.321 1.321 0.16 0.558 0.21 0.984 0.16 1.277-0.055 0.242-0.188 0.48-0.403 0.723-0.238 0.238-0.386 0.492-0.437 0.757-0.055 0.215-0.149 0.922-0.281 2.122-0.106 0.855-0.282 1.507-0.52 1.96-0.402 0.774-0.656 1.52-0.762 2.239 0.508 0 1.082-0.223 1.719-0.68z" inkscape:connector-curvature="0"/>
          </g>
        </g>
      </g>
      <g id="g54">
        <g id="g56">
          <g id="g62">
            <path id="path70" style="fill-rule:evenodd;fill:url(#linearGradient64)" d="m20.609 54.32c0.825-0.453 2.024-1.332 3.598-2.641 2.188-1.758 3.641-3.32 4.359-4.68 0.59-1.093 0.657-2.574 0.204-4.441-0.563-2.289-0.817-3.758-0.762-4.398 0.027-0.508 0.015-1.118-0.039-1.84-0.028-0.426-0.082-1.039-0.16-1.84 0-0.238-0.016-0.735-0.039-1.481-0.055-0.64-0.161-0.961-0.321-0.961-0.054 0.028-0.148 0.586-0.281 1.68-0.133 1.387-0.266 2.414-0.398 3.082-0.215 0.828-0.364 1.442-0.442 1.84-0.187 0.719-0.305 1.332-0.359 1.84-0.028 0.773-0.055 1.359-0.082 1.762-0.078 0.664-0.266 1.21-0.559 1.64-0.105-0.562-0.187-1.523-0.238-2.883-0.028-1.254-0.121-2.187-0.281-2.8-0.321 0.214-0.563 0.668-0.719 1.359-0.11 0.777-0.188 1.309-0.242 1.602-0.239 2.265-0.465 3.972-0.68 5.121-0.215 1.199-0.332 1.867-0.359 2-0.293 0.906-0.653 1.187-1.082 0.839-0.372-0.293-0.547-0.867-0.52-1.718 0.027-0.453 0.094-1.067 0.199-1.844 0.028-0.156-0.011-0.586-0.117-1.277-0.109-0.614-0.148-0.989-0.121-1.121-0.238-0.188-0.453 0.332-0.641 1.558-0.215 1.574-0.386 2.508-0.519 2.801-0.188 0.402-0.375 1.039-0.559 1.922-0.16 0.879-0.347 1.519-0.562 1.918-0.614 1.304-1.266 2.386-1.957 3.238-0.481 0.617-0.856 1.121-1.121 1.523-0.481 0.719-0.707 1.278-0.68 1.68v0.16c0.719-0.16 1.652-0.707 2.801-1.64 1.382-1.118 2.277-1.785 2.679-2z" inkscape:connector-curvature="0"/>
          </g>
        </g>
      </g>
      <path id="path72" style="fill-rule:evenodd;fill:#8361ce" d="m66.566 36.281c0.508-0.536 0.973-1.094 1.403-1.68-1.281 1.359-2.16 2.144-2.641 2.359-0.293 0.133-0.625-0.254-1-1.16-0.426-1.066-0.68-1.64-0.762-1.719-0.211-0.214-0.171 0.239 0.122 1.36 0.292 1.117 0.546 1.773 0.761 1.961 0.426 0.32 1.133-0.055 2.117-1.121z" inkscape:connector-curvature="0"/>
      <path id="path74" style="fill-rule:evenodd;fill:#262b3f" d="m140.89 81.359c-0.344-0.024-1.133-2.36-2.36-7-0.425-1.598-0.824-2.84-1.199-3.719-0.508-1.199-1.16-2.359-1.961-3.48-3.066-4.293-7.265-7.641-12.597-10.04-2.696-1.761-4.895-3.132-6.602-4.121-3.199-1.863-5.438-2.343-6.719-1.437-1.414-0.883-2.785-2.547-4.121-5-0.238-0.453-1.172-2.442-2.797-5.961-0.695-1.52-1.75-3.906-3.16-7.16-1.309-2.774-2.641-4.985-4-6.641-1.203-1.465-2.226-2.172-3.082-2.117-0.691 0.023-1.758 0.691-3.199 2-0.133 0.105-0.469 0.598-1 1.477-0.16 0.269-0.652 0.214-1.481-0.157-0.48-0.215-1.16-1-2.039-2.359-0.483-0.723-1.073-1.641-1.764-2.762-0.747-1.066-2.067-3.32-3.961-6.762-1.598-2.878-3.024-5.039-4.278-6.476-1.547-1.789-3.429-3.32-5.64-4.602-1.817-1.015-4.067-1.972-6.762-2.882-2.559-0.852-5.359-1.465-8.398-1.84-3.36-0.426-6.227-0.426-8.602 0-1.414 0.269-1.918 1.16-1.52 2.683 0.856 3.172 1.282 5.399 1.282 6.68 0 2.32-0.547 4.984-1.641 8-1.734 4.746-2.785 7.812-3.16 9.199-0.961 3.653-2.082 6.465-3.359 8.442-1.094 1.707-3.309 4.226-6.641 7.558-3.52 3.653-5.906 6.121-7.16 7.399-1.973 2.027-3.856 3.695-5.641 5-1.84 1.336-3.133 2.867-3.879 4.601-0.746 2.266-1.453 4.199-2.121 5.801-0.801 1.894-2.613 4.625-5.437 8.199-2.989 3.762-4.536 5.735-4.641 5.922l113.08 1.199c2.879 0.024 7.309-0.043 13.281-0.199 5.36-0.059 9.786 0.129 13.278 0.555z" inkscape:connector-curvature="0"/>
      <g id="g76">
        <g id="g78" clip-path="url(#clipPath80)">
          <g id="g84" transform="matrix(.40232 -.69144 -.69144 -.40232 .0077150 105.12)">
            <g id="g106" mask="url(#mask98)">
              <path id="path114" style="fill-rule:evenodd;fill:url(#linearGradient108)" d="m43.93 63.359c0.343-2.477 0.679-5.09 1-7.84 0.105-0.746-0.883-0.117-2.961 1.883-4.481 4.343-6.789 6.574-6.922 6.679-3.547 3.145-9.145 6.961-16.801 11.438l23.481-1.317c0.773-2.457 1.507-6.066 2.203-10.843z" inkscape:connector-curvature="0"/>
            </g>
          </g>
        </g>
      </g>
      <g id="g116">
        <g id="g118" clip-path="url(#clipPath120)">
          <g id="g124" transform="matrix(.40248 -.69144 -.69144 -.40248 .0078470 105.12)">
            <g id="g146" mask="url(#mask138)">
              <path id="path154" style="fill-rule:evenodd;fill:url(#linearGradient148)" d="m136.37 80.882c-1.945-1.254-3.625-1.976-5.039-2.16-1.949-0.215-4.707-2.52-8.281-6.922-1.547-1.894-2.613-2.746-3.199-2.558-0.16 0.05-0.692 0.812-1.602 2.277-0.664 1.656-1.172 2.574-1.519 2.762-0.559 0.32-1.481-0.946-2.758-3.801-1.149-2.641-2.563-5.145-4.242-7.52-2.532-3.519-3.957-5.547-4.282-6.078-1.117-1.867-2.078-1.469-2.879 1.199-1.332 4.371-2.238 6.907-2.718 7.598-1.36 1.895-3.321 3.828-5.879 5.801-2.614 2.027-4.883 3.32-6.801 3.879l49.199 5.523z" inkscape:connector-curvature="0"/>
            </g>
          </g>
        </g>
      </g>
      <g id="g156">
        <g id="g158" clip-path="url(#clipPath160)">
          <g id="g164" transform="matrix(.40208 -.6916 -.6916 -.40208 .0077427 105.12)">
            <g id="g186" mask="url(#mask178)">
              <path id="path194" style="fill-rule:evenodd;fill:url(#linearGradient188)" d="m71.328 75.281c-0.371-2.508-1.266-6.161-2.68-10.961-1.652-5.575-3.878-11.172-6.679-16.801-0.668-1.359-1.403-1.09-2.199 0.801-1.094 3.199-2.043 5.867-2.84 8-1.203 3.226-2.684 6.64-4.442 10.242-1.761 3.652-3.308 6.465-4.64 8.437 2.879 0.774 7.652 1.055 14.32 0.84 3.359-0.105 6.414-0.293 9.16-0.558z" inkscape:connector-curvature="0"/>
            </g>
          </g>
        </g>
      </g>
      <path id="path196" style="fill-rule:evenodd;fill:#1e2332" d="m141.21 80.679c-0.824-0.906-1.508-2.172-2.039-3.797-0.082-0.269-0.199-0.84-0.359-1.722-0.188-0.825-0.442-1.333-0.762-1.52-0.266-0.16-0.664-0.133-1.199 0.082-0.559 0.266-0.961 0.426-1.2 0.48-0.425 0.106-1.132 0.133-2.121 0.079-1.14-0.055-1.742-0.239-1.797-0.559 0.051 0.348-0.015 0.547-0.203 0.598-0.183 0.054-0.386-0.051-0.597-0.321l-0.039 0.403c-0.293-0.614-0.575-1.016-0.844-1.2l-0.039 1.637c-1.172-0.719-1.867-1.16-2.078-1.32-0.774-0.504-1.403-1.039-1.883-1.598-0.024 0.399 0.027 1.254 0.16 2.559-0.746-0.692-1.332-1.188-1.758-1.481 0.078 0.243 0.25 0.496 0.52 0.762 0.347 0.375 0.558 0.613 0.64 0.719-1.601-0.504-2.894-0.934-3.882-1.278-1.25-0.472-2.106-0.988-2.559-1.542 0.066 0.167 0.133 0.363 0.199 0.582 0.188 0.613 0.442 1.078 0.762 1.398-0.16-0.105-0.668-0.52-1.52-1.238-0.027-0.11 0.024-0.188 0.161-0.242-0.188 0-0.911 0.121-2.161 0.359-0.961 0.16-1.668 0.176-2.121 0.043-0.426-0.137-0.851-0.496-1.281-1.082-0.312-0.434-0.559-0.899-0.738-1.399 0.14 0.457 0.187 1.032 0.14 1.719l-0.961-1.398-0.121 1.32c-0.238-0.613-0.851-1.187-1.839-1.723-1.254-0.718-1.973-1.16-2.161-1.32l-0.039 0.402c-0.426-0.64-0.773-1.093-1.039-1.359 0.024 0.32 0.051 0.559 0.078 0.719-0.371-0.508-0.57-1.266-0.597-2.281-0.028-1.145-0.121-1.907-0.282-2.278-0.851 1.785-1.226 3.145-1.121 4.078-0.211-0.238-0.281-0.691-0.199-1.359 0.055-0.375 0.121-0.867 0.199-1.481-0.691 1.122-1.05 2.067-1.078 2.84-0.535-0.398-1.054-0.48-1.562-0.238-0.559 0.398-1.012 0.691-1.36 0.879l-0.117-0.359c-0.32 0.027-0.734 0.183-1.242 0.48-0.719 0.453-1.106 0.691-1.16 0.719 0.133-0.266 0.469-0.602 1-1 0.508-0.426 0.855-0.801 1.039-1.121-0.504 0.242-1.145 0.613-1.918 1.121-0.906 0.613-1.547 1.011-1.918 1.199-0.508 0.266-1.055 0.414-1.641 0.441-0.855 0-1.414 0.028-1.679 0.079-0.403 0.082-0.911 0.347-1.52 0.8-0.48 0.375-1.027 0.52-1.641 0.442-2.402-0.375-3.734-0.575-4-0.602-0.429-0.027-1.148 0-2.16 0.082-0.933 0.051-1.668 0.051-2.199 0-0.215-0.027-0.59-0.109-1.121-0.242-0.426-0.133-0.801-0.188-1.121-0.16l-4.117 0.16c-0.563 0.027-0.934-0.027-1.121-0.16-0.215-0.133-0.414-0.453-0.602-0.961-0.984 0.59-1.758 0.976-2.316 1.16-0.453 0.16-0.922 0.242-1.403 0.242-0.586-0.054-1.066-0.094-1.437-0.121-0.055 0.32-0.067 0.547-0.043 0.68-0.371-0.238-0.824-0.211-1.36 0.082l0.082-0.36c-0.054 0-0.496 0.118-1.32 0.36-0.64 0.183-1.054 0.199-1.242 0.039-0.184-0.188-0.238-0.668-0.16-1.441 0.137-0.985 0.203-1.493 0.203-1.52-0.617 0.719-1.082 1.254-1.402 1.602-0.532 0.585-1.079 1.039-1.641 1.359 0.027-0.16 0.016-0.426-0.039-0.801-0.668 0.668-1.652 1.067-2.961 1.199-0.613 0.055-1.719 0.055-3.32 0-1.918-0.105-3.692-1.144-5.321-3.117-0.453-0.535-1.265-0.734-2.437-0.601-1.469 0.16-2.414 0.171-2.84 0.039l0.078 0.359c-0.32-0.344-0.492-0.73-0.519-1.16-0.161 0.082-0.774 0.457-1.84 1.121-0.774 0.508-1.442 0.746-2 0.719l-0.043-0.239c-0.399 0.028-1.094 0.2-2.078 0.52-0.907 0.293-1.602 0.441-2.082 0.441 0.347-0.48 0.976-1.132 1.882-1.961-1.414 0.614-2.496 1.082-3.242 1.399-1.304 0.535-2.426 0.816-3.359 0.84 0.027-0.133 0.027-0.371 0-0.719-1.813 0.508-2.774 0.762-2.879 0.762-1.094 0.105-1.613-0.387-1.562-1.481-0.934 0.746-2.079 1-3.438 0.758 0-0.691 0.211-1.344 0.641-1.957-0.883 0.586-1.922 1.117-3.121 1.598-1.708 0.722-2.629 0.789-2.762 0.199-0.106 0.027-0.332 0.148-0.68 0.363-0.238 0.133-0.492 0.199-0.758 0.199-0.347 0.028-0.695-0.054-1.043-0.242-0.371-0.211-0.57-0.48-0.597-0.797-0.188 0.719-0.789 1.438-1.801 2.16-0.238-0.269-0.414-0.628-0.52-1.082-0.375 0.215-0.601 0.387-0.679 0.52 0-0.266 0.117-0.813 0.359-1.641 0.16-0.664 0.199-1.238 0.121-1.718-0.215 0.347-0.519 0.972-0.922 1.879-0.375 0.828-0.691 1.414-0.961 1.761-0.48 0.614-1.144 1.133-2 1.559-0.371 0.187-1.172 0.519-2.398 1-1.922 0.773-3.508 1.707-4.762 2.801-1.89 1.652-1.305 3.839 1.762 6.558 2.078 1.867 4.426 3.387 7.039 4.563 2.879 1.277 6.242 2.32 10.082 3.117 3.598 0.75 7.094 1.176 10.48 1.281 8.532 0.32 17.813-0.453 27.84-2.32 9.305-1.785 19.41-2.68 30.317-2.68h3.683c2.504 0.055 5.317-0.265 8.438-0.961 1.762-0.371 4.48-0.972 8.16-1.797l22.719-3.882c1.254-0.211 2.976-0.133 5.16 0.242 2.055 0.371 3.441 0.465 4.16 0.277z" inkscape:connector-curvature="0"/>
      <path id="path198" style="fill-rule:evenodd;fill:#657177" d="m132.05 82.402c1.148-0.188 2.933-0.348 5.359-0.481 2.16-0.082 3.629-0.226 4.403-0.441-0.082-0.188-0.575-1.028-1.481-2.52-0.668-1.121-1.105-2.039-1.32-2.758-1.309 0.266-3.16 0.36-5.559 0.278-2.453-0.055-4.269 0.027-5.441 0.242-0.375 0.078-0.813 0-1.32-0.242-0.559-0.266-0.973-0.399-1.239-0.399-0.562 0.079-0.922 0.133-1.082 0.161-0.265 0.05-0.597-0.094-1-0.442-0.746-0.664-1.16-1.027-1.238-1.078-0.563-0.375-1.067-0.441-1.52-0.203-1.629 0.562-2.562 0.867-2.8 0.922-1.039 0.238-1.973 0.16-2.801-0.239-0.719-0.507-1.309-0.843-1.762-1-0.133-0.054-0.426-0.093-0.879-0.121-0.398-0.027-0.691-0.093-0.879-0.199-0.215-0.109-0.426-0.336-0.64-0.68l-0.481-0.843c-0.426-0.559-1.055-1.051-1.879-1.477-0.402-0.215-1.148-0.523-2.242-0.922-2.48-0.933-5.066-0.867-7.758 0.2-0.32 0.132-1.093 0.535-2.32 1.199-0.961 0.535-1.773 0.867-2.441 1-1.012 0.187-3.039 0.347-6.082 0.48-1.04 0.11-1.813 0.176-2.317 0.203-0.883 0.078-1.629 0.012-2.242-0.203-0.879-0.32-2.012-0.387-3.398-0.199-1.762 0.215-2.895 0.309-3.403 0.281-0.316-0.027-0.84-0.215-1.558-0.562-0.586-0.266-1.094-0.344-1.52-0.239-0.48 0.106-3.055 0.52-7.719 1.239-1.547 0.32-2.707 0.508-3.48 0.562-0.426 0.055-1 0.012-1.719-0.121-0.883-0.133-1.457-0.199-1.723-0.199-1.414 0.051-2.464 0.051-3.16 0-0.664-0.082-1.105-0.149-1.32-0.199-0.348-0.11-0.719-0.309-1.117-0.602-0.535-0.375-1.11-0.586-1.723-0.64-0.211 0-0.812 0.042-1.801 0.121-0.613-0.907-1.105-1.536-1.476-1.879-0.59-0.563-1.281-0.934-2.082-1.121-0.266-0.055-1.067 0.054-2.399 0.32-1.148 0.238-1.816 0.215-2-0.082-0.133-0.184-0.093-0.664 0.117-1.438 0.161-0.668-0.011-1.16-0.519-1.48-0.797-0.508-1.453-0.332-1.957 0.519-0.242 0.426-0.481 1.172-0.723 2.239-0.265 1.468-0.664 2.187-1.199 2.16-0.32-0.024-0.453-0.25-0.398-0.68 0.05-0.265 0.117-0.613 0.199-1.039-0.16-1.625-1.121-1.332-2.879 0.879-0.59 0.746-1.414 1.27-2.481 1.563-0.375 0.105-1.347 0.253-2.921 0.437-1.282 0.188-2.254 0.309-2.918 0.363-1.176 0.051-2.11-0.148-2.801-0.601-0.16-0.106-0.348-0.348-0.563-0.719-0.183-0.32-0.41-0.547-0.679-0.68-1.172-0.535-2.692-0.496-4.559 0.118-2.641 0.855-4.145 1.292-4.519 1.32-0.801-0.055-1.415-0.039-1.84 0.039-0.403 0.16-0.707 0.281-0.922 0.363-0.43 0.16-0.75 0.184-0.961 0.078-0.188-0.078-0.348-0.32-0.481-0.718-0.109-0.403-0.242-0.653-0.402-0.762-0.371-0.238-0.785-0.211-1.238 0.082-0.188 0.133-0.536 0.453-1.043 0.957-0.504 0.535-1.239 1.43-2.2 2.683-0.906 1.223-1.636 2.118-2.199 2.68-0.344-0.137-0.64 0.094-0.879 0.68-0.16 0.426-0.238 0.824-0.238 1.199 0.023 2.106 1.238 4.133 3.637 6.078 1.656 1.363 3.789 2.629 6.402 3.801 2.852 1.281 6.211 2.32 10.078 3.121 3.574 0.746 7.067 1.188 10.481 1.32 8.773 0.293 18.054-0.496 27.84-2.359 9.039-1.734 19.148-2.629 30.32-2.68l3.68 0.039c2.507 0.028 5.32-0.308 8.441-1 1.762-0.375 4.48-0.972 8.16-1.8l22.719-3.879z" inkscape:connector-curvature="0"/>
      <path id="path200" style="fill-rule:evenodd;fill:#1e2332" d="m131.85 83.562c1.199-0.215 3.375-0.481 6.519-0.801 2.453-0.32 3.547-0.734 3.281-1.242-2.402 0.269-4.148 0.176-5.242-0.277-0.984-0.614-1.933-1.016-2.84-1.2-1.89-0.402-2.878-0.601-2.957-0.601-1.468 0.054-2.562-0.039-3.281-0.281-0.855-0.266-1.855-0.387-3-0.36-1.308 0.082-2.332 0.106-3.082 0.082-1.973-0.082-3.359-0.187-4.16-0.32-1.492-0.27-2.774-0.762-3.84-1.481 0.695 0.532 1.082 0.895 1.16 1.079-0.586-0.024-1.371-0.184-2.359-0.481-1.442-0.453-2.238-0.691-2.399-0.719-0.586-0.133-1.8-0.508-3.64-1.121-1.52-0.48-2.746-0.797-3.68-0.957-0.293-0.055-1.109-0.297-2.441-0.722-0.453-0.161-0.973-0.2-1.559-0.118-0.695 0.106-1.215 0.184-1.562 0.239-1.84 0.293-2.973 0.453-3.399 0.48-1.359 0.188-2.492 0.238-3.398 0.16-0.215 0-0.629-0.066-1.242-0.199-0.508-0.109-0.934-0.148-1.282-0.121-0.425 0.027-0.972 0.105-1.64 0.238-0.879 0.188-1.426 0.297-1.637 0.321-1.227 0.187-2.148 0.308-2.762 0.359-1.094 0.109-2.011 0.055-2.761-0.16 0.027-0.239 0.281-0.449 0.761-0.637 0.196-0.086 0.399-0.152 0.602-0.203-0.465 0.062-1.117 0.129-1.961 0.203-1.039 0.105-1.867 0.254-2.481 0.438-1.171 0.347-2.386 0.48-3.64 0.402l0.199-0.16c-0.32 0-0.934 0.078-1.84 0.238-0.797 0.133-1.414 0.176-1.84 0.121 0.16-0.348 0.481-0.625 0.961-0.84 0.371-0.176 0.727-0.261 1.059-0.261-1.192-0.067-2.719 0.097-4.578 0.5-3.016 0.64-4.625 0.976-4.84 1-1.785 0.265-4.055 0.175-6.801-0.278l1.082 0.68c-0.297-0.082-0.773-0.137-1.441-0.16-0.668-0.028-1.16-0.082-1.481-0.16-0.265-0.055-0.707-0.2-1.32-0.442-0.559-0.215-1-0.348-1.32-0.398l0.722 0.679c-0.75-0.214-1.761-0.402-3.043-0.562-1.707-0.238-2.746-0.383-3.117-0.438-2.055-0.32-3.59-0.535-4.601-0.64-1.762-0.16-3.305-0.149-4.641 0.039-1.758 0.32-3.094 0.519-4 0.601-0.586 0.051-1.453 0.039-2.598-0.039-1.148-0.082-2-0.093-2.562-0.043-0.16 0.215-0.52 0.309-1.078 0.282-0.641-0.055-1.082-0.079-1.321-0.079-1.839 0.024-3.215 0.012-4.121-0.042-1.414-0.161-2.48-0.211-3.199-0.161-3.121 0.161-5.734 0.536-7.84 1.121-2.879 0.747-5.226 1.934-7.039 3.559-1.894 1.656-1.308 3.84 1.758 6.563 2.105 1.867 4.453 3.386 7.039 4.558 2.855 1.281 6.215 2.309 10.082 3.082 3.598 0.746 7.094 1.184 10.481 1.32 8.773 0.293 18.05-0.496 27.839-2.363 9.039-1.73 19.145-2.625 30.321-2.679l3.679 0.042c2.508 0.024 5.321-0.296 8.442-0.96 1.758-0.375 4.476-0.973 8.16-1.801l22.719-3.879z" inkscape:connector-curvature="0"/>
      <g id="g202">
        <g id="g218" mask="url(#mask210)">
          <g id="g258">
            <g id="g260" clip-path="url(#clipPath222)">
              <g id="g262" transform="translate(0 -.86784)">
                <g id="g266">
                  <g id="g268" clip-path="url(#clipPath226)">
                    <g id="g270">
                      <g id="g272">
                        <g id="g274" clip-path="url(#clipPath230)">
                          <g id="g276" transform="matrix(.53992 .59032 -.59032 .53992 -2681.9 -6822.5)">
                            <g id="g280" mask="url(#mask244)">
                              <path id="path282" style="fill-rule:evenodd;fill:url(#linearGradient252)" d="m23.77 67.867c3.039-2.613 4.972-5.719 5.796-9.32 2.082-9.067 2.309-12.719 0.684-10.957-0.988 1.066-1.867 1.945-2.641 2.64-1.066 0.907-2.586 2.079-4.562 3.52-3.68 2.613-6.348 4.746-8 6.398-0.399 0.375-0.852 1.332-1.359 2.879-0.692 2.243-1.266 3.856-1.719 4.84-0.668 1.524-1.496 2.934-2.481 4.242-0.558 0.719-1.238 1.532-2.039 2.438-0.293 0.348 0.574 0.215 2.598-0.399 1.176-0.375 3.242-1.039 6.203-2 2.746-0.906 5.25-2.332 7.52-4.281z" inkscape:connector-curvature="0"/>
                            </g>
                          </g>
                        </g>
                      </g>
                    </g>
                  </g>
                </g>
              </g>
            </g>
          </g>
        </g>
      </g>
      <g id="g284">
        <g id="g300" mask="url(#mask292)">
          <g id="g340">
            <g id="g342" clip-path="url(#clipPath304)">
              <g id="g344" transform="translate(0 -.86784)">
                <g id="g348">
                  <g id="g350" clip-path="url(#clipPath308)">
                    <g id="g352">
                      <g id="g354">
                        <g id="g356" clip-path="url(#clipPath312)">
                          <g id="g358" transform="matrix(.76648 .2292 -.2292 .76648 -1558 -2085)">
                            <g id="g362" mask="url(#mask326)">
                              <path id="path364" style="fill-rule:evenodd;fill:url(#linearGradient334)" d="m36.328 45.309c2.906-0.106 5.238-0.719 7-1.84 2-1.305 3.453-2.801 4.36-4.481 1.066-2 1.695-4.773 1.878-8.32 0.161-3.199-0.117-6.277-0.839-9.238-0.454-1.762-1.012-3.309-1.68-4.641-0.586-1.148-1.52 0.32-2.801 4.399-0.558 1.816-1.449 4.082-2.68 6.8-0.398 0.907-0.796 2.188-1.199 3.84-0.558 2.426-0.961 4.039-1.199 4.84-0.426 1.52-1.414 3.039-2.961 4.562-0.824 0.825-1.879 1.84-3.16 3.04-0.664 0.8 0.426 1.144 3.281 1.039z" inkscape:connector-curvature="0"/>
                            </g>
                          </g>
                        </g>
                      </g>
                    </g>
                  </g>
                </g>
              </g>
            </g>
          </g>
        </g>
      </g>
      <g id="g366">
        <g id="g382" mask="url(#mask374)">
          <g id="g422">
            <g id="g424" clip-path="url(#clipPath386)">
              <g id="g426" transform="translate(0 -.86784)">
                <g id="g430">
                  <g id="g432" clip-path="url(#clipPath390)">
                    <g id="g434">
                      <g id="g436">
                        <g id="g438" clip-path="url(#clipPath394)">
                          <g id="g440" transform="matrix(.62648 .49752 -.49752 .62648 -2605.1 -5378.7)">
                            <g id="g444" mask="url(#mask408)">
                              <path id="path446" style="fill-rule:evenodd;fill:url(#linearGradient416)" d="m32.246 59.348c-0.453 1.226-0.719 2.199-0.797 2.922-0.082 0.851 0.184 1.027 0.797 0.519 1.867-1.148 3.629-2.309 5.281-3.48 3.227-2.293 5.696-4.602 7.403-6.918 1.812-2.481 3.039-5.11 3.679-7.883 0.586-2.559 0.504-3.57-0.242-3.039-0.133 0.105-0.679 0.707-1.64 1.801-0.797 0.906-1.586 1.546-2.36 1.918-1.277 0.613-2.758 1.226-4.437 1.839-2.055 0.774-3.508 1.188-4.364 1.243-0.824 0.054-1.398 0.519-1.718 1.398-0.188 0.586-0.321 1.723-0.399 3.402-0.109 2.211-0.508 4.305-1.203 6.278z" inkscape:connector-curvature="0"/>
                            </g>
                          </g>
                        </g>
                      </g>
                    </g>
                  </g>
                </g>
              </g>
            </g>
          </g>
        </g>
      </g>
      <g id="g448">
        <g id="g464" mask="url(#mask456)">
          <g id="g504">
            <g id="g506" clip-path="url(#clipPath468)">
              <g id="g508" transform="translate(0 -.86784)">
                <g id="g512">
                  <g id="g514" clip-path="url(#clipPath472)">
                    <g id="g516">
                      <g id="g518">
                        <g id="g520" clip-path="url(#clipPath476)">
                          <g id="g522" transform="matrix(.78408 .15872 -.15872 .78408 -1109.6 -1365.1)">
                            <g id="g526" mask="url(#mask490)">
                              <path id="path528" style="fill-rule:evenodd;fill:url(#linearGradient498)" d="m52.77 41.188c0.238 1.199 0.531 3.492 0.878 6.878 0.188 1.657 0.481 2.254 0.879 1.801 0.43-0.48 1.067-1.465 1.922-2.961 0.504-0.879 1.414-2.465 2.719-4.758 1.227-2.027 2.121-4.187 2.68-6.48 0.695-2.668 0.828-5.172 0.398-7.52-0.398-2.214-1.359-4.48-2.879-6.8-1.012-1.52-2.144-2.907-3.398-4.16-0.614-0.614-1.016-0.266-1.199 1.039-0.348 2.32-0.657 3.8-0.922 4.441-0.719 1.52-1.2 2.535-1.442 3.039-0.371 0.773-0.558 1.629-0.558 2.563 0.082 1.41 0.105 2.453 0.082 3.117 0 1.148-0.203 2.281-0.602 3.402-0.371 1.066-0.293 2.238 0.238 3.52 0.696 1.304 1.094 2.265 1.204 2.879z" inkscape:connector-curvature="0"/>
                            </g>
                          </g>
                        </g>
                      </g>
                    </g>
                  </g>
                </g>
              </g>
            </g>
          </g>
        </g>
      </g>
      <g id="g530">
        <g id="g546" mask="url(#mask538)">
          <g id="g586">
            <g id="g588" clip-path="url(#clipPath550)">
              <g id="g590" transform="translate(0 -.86784)">
                <g id="g594">
                  <g id="g596" clip-path="url(#clipPath554)">
                    <g id="g598">
                      <g id="g600">
                        <g id="g602" clip-path="url(#clipPath558)">
                          <g id="g604" transform="matrix(.79784 -.05872 .05872 .79784 541.73 481.36)">
                            <g id="g608" mask="url(#mask572)">
                              <path id="path610" style="fill-rule:evenodd;fill:url(#linearGradient580)" d="m51.328 22.793c0.348-0.883 0.707-1.988 1.078-3.32 0.75-2.696 1.227-5.227 1.442-7.602 0.242-2.531-0.387-4.707-1.879-6.519-1.199-1.442-2.403-2.2-3.602-2.282-0.824-0.05-1.32 0.254-1.48 0.922-0.16 0.586-0.067 1.52 0.281 2.801 0.266 0.961 0.398 1.758 0.398 2.398-0.027 0.856-0.027 1.747 0 2.68 0.082 1.309 0.188 2.149 0.321 2.52 0.027 0.109 0.414 0.906 1.16 2.402 0.855 1.707 1.348 2.746 1.48 3.117 0.348 0.856 0.614 1.817 0.801 2.883z" inkscape:connector-curvature="0"/>
                            </g>
                          </g>
                        </g>
                      </g>
                    </g>
                  </g>
                </g>
              </g>
            </g>
          </g>
        </g>
      </g>
      <g id="g612">
        <g id="g628" mask="url(#mask620)">
          <g id="g668">
            <g id="g670" clip-path="url(#clipPath632)">
              <g id="g672" transform="translate(0 -.86784)">
                <g id="g676">
                  <g id="g678" clip-path="url(#clipPath636)">
                    <g id="g680">
                      <g id="g682">
                        <g id="g684" clip-path="url(#clipPath640)">
                          <g id="g686" transform="matrix(.7916 -.11544 .11544 .7916 1063.4 903.19)">
                            <g id="g690" mask="url(#mask654)">
                              <path id="path692" style="fill-rule:evenodd;fill:url(#linearGradient662)" d="m68.648 34.746c0.907-1.41 1.575-3.437 2-6.078 0.266-1.602 0.719-3.668 1.36-6.199 0.293-2.16-0.067-4.266-1.078-6.321-1.203-2.48-2.535-4.492-4-6.039-1.496-1.547-3.282-2.828-5.364-3.839-1.972-0.961-3.211-1.387-3.718-1.282-0.453 0.078-0.547 0.68-0.282 1.801 0.454 1.734 0.817 4 1.082 6.801 0.133 1.277 0.52 2.531 1.161 3.758 1.011 1.574 1.867 2.945 2.558 4.121 1.414 2.265 2.801 6.437 4.16 12.519 0.426 2 1.133 2.254 2.121 0.758z" inkscape:connector-curvature="0"/>
                            </g>
                          </g>
                        </g>
                      </g>
                    </g>
                  </g>
                </g>
              </g>
            </g>
          </g>
        </g>
      </g>
      <g id="g694">
        <g id="g710" mask="url(#mask702)">
          <g id="g750">
            <g id="g752" clip-path="url(#clipPath714)">
              <g id="g754" transform="translate(0 -.86784)">
                <g id="g758">
                  <g id="g760" clip-path="url(#clipPath718)">
                    <g id="g762">
                      <g id="g764">
                        <g id="g766" clip-path="url(#clipPath722)">
                          <g id="g768" transform="matrix(.79992 -.01296 .01296 .79992 168.42 149.93)">
                            <g id="g772" mask="url(#mask736)">
                              <path id="path774" style="fill-rule:evenodd;fill:url(#linearGradient744)" d="m63.449 45.188c0.16 0.402 0.453 0.546 0.879 0.441 0.508-0.133 0.973-0.613 1.399-1.441 0.402-0.774 0.535-1.708 0.402-2.801-0.055-0.641-0.242-1.68-0.563-3.117-0.238-1.336-0.476-2.243-0.718-2.723-0.293-0.559-0.536-0.32-0.719 0.723-0.188 1.117-0.375 1.918-0.563 2.398-0.16 0.453-0.504 1.121-1.039 2-0.453 0.719-0.48 1.586-0.078 2.602 0.239 0.558 0.574 1.199 1 1.918z" inkscape:connector-curvature="0"/>
                            </g>
                          </g>
                        </g>
                      </g>
                    </g>
                  </g>
                </g>
              </g>
            </g>
          </g>
        </g>
      </g>
      <g id="g776">
        <g id="g792" mask="url(#mask784)">
          <g id="g832">
            <g id="g834" clip-path="url(#clipPath796)">
              <g id="g836" transform="translate(0 -.86784)">
                <g id="g840">
                  <g id="g842" clip-path="url(#clipPath800)">
                    <g id="g844">
                      <g id="g846">
                        <g id="g848" clip-path="url(#clipPath804)">
                          <g id="g850" transform="matrix(.8 0 0 .8 68.208 70.988)">
                            <g id="g854" mask="url(#mask818)">
                              <path id="path856" style="fill-rule:evenodd;fill:url(#linearGradient826)" d="m76.008 70.867c1.226-0.371 2.586-1.465 4.082-3.277 3.57-4.43 5.222-8.828 4.957-13.203-0.238-4.106-0.879-7.653-1.918-10.641-0.856-2.398-2.176-4.934-3.961-7.598-1.867-2.828-3.055-4.402-3.559-4.718-0.828-0.535-1.453 0.316-1.882 2.558-0.399 2.028-0.957 3.813-1.68 5.36-0.906 1.707-1.613 3.148-2.117 4.32-0.618 1.414-1.028 3.172-1.242 5.281-0.266 2.985-0.415 4.531-0.442 4.641-0.211 1.039 0.414 3.41 1.883 7.117 1.945 4.934 3.012 7.723 3.199 8.359 0.426 1.629 1.32 2.227 2.68 1.801z" inkscape:connector-curvature="0"/>
                            </g>
                          </g>
                        </g>
                      </g>
                    </g>
                  </g>
                </g>
              </g>
            </g>
          </g>
        </g>
      </g>
      <g id="g858">
        <g id="g874" mask="url(#mask866)">
          <g id="g914">
            <g id="g916" clip-path="url(#clipPath878)">
              <g id="g918" transform="translate(0 -.86784)">
                <g id="g922">
                  <g id="g924" clip-path="url(#clipPath882)">
                    <g id="g926">
                      <g id="g928">
                        <g id="g930" clip-path="url(#clipPath886)">
                          <g id="g932" transform="matrix(.7452 .29112 -.29112 .7452 -1874.9 -2735.1)">
                            <g id="g936" mask="url(#mask900)">
                              <path id="path938" style="fill-rule:evenodd;fill:url(#linearGradient908)" d="m46.328 66.348c-0.293 1.707-0.348 2.679-0.16 2.922 0.215 0.292 0.84-0.016 1.879-0.922 1.226-1.094 2.308-2.653 3.242-4.68 1.094-2.348 1.613-4.652 1.559-6.922-0.055-2.316-0.465-4.144-1.239-5.476-0.746-1.254-1.269-1.297-1.562-0.122-0.371 1.52-1.266 3.786-2.68 6.801-0.48 1.012-0.758 2.465-0.84 4.36-0.132 2.664-0.199 4.011-0.199 4.039z" inkscape:connector-curvature="0"/>
                            </g>
                          </g>
                        </g>
                      </g>
                    </g>
                  </g>
                </g>
              </g>
            </g>
          </g>
        </g>
      </g>
      <path id="path940" style="fill-rule:evenodd;fill:#8361ce" d="m33.727 43.281 1.562-1.082c1.199-0.825 2.211-1.465 3.039-1.918 0.852-0.508 1.453-1.239 1.801-2.2 0.133-0.293 0.414-1.386 0.84-3.281 0.211-0.879 0.453-2 0.719-3.359 0.265-1.254 0.624-2.535 1.082-3.84 0.769-2.133 1.332-4.133 1.679-6l-1.203 2.879c-0.957 2.426-1.598 4.094-1.918 5-0.215 0.64-0.48 1.695-0.801 3.16-0.425 1.918-0.746 3.266-0.961 4.039-0.293 1.176-1.359 2.629-3.199 4.363l-2.64 2.239z" inkscape:connector-curvature="0"/>
      <path id="path942" style="fill-rule:evenodd;fill:#8361ce" d="m45.527 18.882c0.028 0.371 0.176 0.238 0.442-0.402 0.293-0.641 0.48-1.238 0.558-1.801 0.082-0.613-0.078-0.531-0.48 0.242-0.399 0.719-0.574 1.371-0.52 1.961z" inkscape:connector-curvature="0"/>
      <path id="path944" style="fill-rule:evenodd;fill:#8361ce" d="m50.648 18.12c0.614 1.2 0.829 1.399 0.641 0.602-0.16-0.723-0.48-1.652-0.961-2.801-0.64-1.519-0.988-2.359-1.039-2.519-0.266-0.801-0.387-1.535-0.359-2.2 0.023-0.667-0.043-1.335-0.203-2-0.051-0.187-0.305-1.027-0.758-2.519-0.43-1.523-0.508-2.773-0.242-3.762-0.321 0.774-0.415 1.641-0.278 2.602 0.028 0.183 0.16 0.812 0.399 1.879 0.16 0.691 0.226 1.398 0.199 2.121-0.078 1.039-0.117 1.758-0.117 2.16 0.023 0.613 0.172 1.227 0.437 1.84l2.281 4.597z" inkscape:connector-curvature="0"/>
      <path id="path946" style="fill-rule:evenodd;fill:#8361ce" d="m54.168 45.679c0.238-1.707 0.094-3.57-0.441-5.598-0.266-1.066-0.625-2.336-1.079-3.8-0.132-0.852-0.347-1.387-0.64-1.602-0.238-0.184-0.387-0.051-0.442 0.402-0.027 0.801 0.508 2.481 1.602 5.039 0.426 0.961 0.719 2.282 0.879 3.961 0.055 1.332 0.094 1.868 0.121 1.598z" inkscape:connector-curvature="0"/>
      <path id="path948" style="fill-rule:evenodd;fill:#8361ce" d="m52.527 31.48 0.602-4.68c0.32-2.027 0.293-2.664-0.082-1.918-0.266 0.504-0.438 0.852-0.52 1.039-0.132 0.293-0.226 0.68-0.281 1.16-0.051 0.426-0.023 1.161 0.082 2.2 0.133 1.171 0.199 1.906 0.199 2.199z" inkscape:connector-curvature="0"/>
      <path id="path950" style="fill-rule:evenodd;fill:#8361ce" d="m54.566 20.921 0.243-0.242c0.187-0.266 0.359-0.691 0.519-1.277 0.133-0.617 0.188-1.282 0.16-2-0.027-0.774-0.066-0.91-0.121-0.403 0 0.215-0.133 0.813-0.398 1.801-0.242 1.012-0.375 1.719-0.403 2.121z" inkscape:connector-curvature="0"/>
      <path id="path952" style="fill-rule:evenodd;fill:#8361ce" d="m67.246 32.722-0.437-2.641c-0.454-2.16-1.016-4.293-1.68-6.402-0.613-1.973-1.426-3.891-2.441-5.758-1.04-1.894-1.626-3.027-1.758-3.402-0.348-0.984-0.723-1.637-1.121-1.957-0.426-0.32-0.586-0.043-0.481 0.84 0.106 0.906 0.32 1.679 0.641 2.32 0.293 0.637 1.144 2.023 2.558 4.16 1.176 1.758 2.309 4.426 3.403 8l1.316 4.84z" inkscape:connector-curvature="0"/>
      <path id="path954" style="fill-rule:evenodd;fill:#8361ce" d="m58.648 9.32c0.239 0.988 0.332 0.574 0.282-1.239-0.028-1.679-0.254-2.734-0.684-3.16-0.664-0.695-0.531 0.774 0.402 4.399z" inkscape:connector-curvature="0"/>
      <path id="path956" style="fill-rule:evenodd;fill:#8361ce" d="m63.648 43.402-0.48-0.961c-0.238-0.746-0.238-1.426 0-2.039 0.398-0.989 0.652-2.215 0.762-3.68-0.082 0.746-0.309 1.547-0.684 2.398-0.426 0.801-0.691 1.36-0.797 1.68-0.137 0.375 0.028 0.922 0.481 1.641 0.238 0.347 0.476 0.668 0.718 0.961z" inkscape:connector-curvature="0"/>
      <path id="path958" style="fill-rule:evenodd;fill:#8361ce" d="m69.648 53.8c-0.132-0.453-0.148-1.398-0.039-2.84 0.161-2.508 0.239-3.785 0.239-3.84 0.054-1.625 0.519-3.64 1.398-6.039-0.664 1.414-1.172 2.746-1.519 4-0.239 0.746-0.399 1.641-0.481 2.68-0.051 1.199-0.117 2.149-0.199 2.84-0.106 1.121-0.133 2.012-0.078 2.68 0.027 0.828 0.187 1.64 0.48 2.441 1.758 5.145 2.957 8.438 3.598 9.879l-3.399-11.801z" inkscape:connector-curvature="0"/>
      <path id="path960" style="fill-rule:evenodd;fill:#8361ce" d="m46.969 62.761c0.343-2.348 0.84-4.066 1.48-5.16 0.985-1.734 1.68-3.492 2.078-5.281 0.348-1.575 0.36-2.239 0.039-2-0.343 0.293-0.824 1.613-1.437 3.961-0.16 0.535-0.547 1.371-1.16 2.519-0.535 0.961-0.84 1.801-0.922 2.52l-0.399 6.601 0.321-3.16z" inkscape:connector-curvature="0"/>
      <path id="path962" style="fill-rule:evenodd;fill:#8361ce" d="m32.727 58.8c1.093-2.265 1.976-5.16 2.64-8.68 0.16-0.851 0.496-1.386 1-1.601 0.481-0.211 2.016-0.785 4.602-1.719 2.16-0.906 3.84-1.906 5.039-3 0.586-0.531 0.961-0.973 1.121-1.32-0.668 0.695-1.922 1.574-3.762 2.64-1.094 0.641-2.691 1.293-4.801 1.961-1.972 0.532-3.105 0.868-3.398 1-0.746 0.293-1.121 1.735-1.121 4.321 0 0.824-0.211 2.144-0.641 3.961l-0.679 2.437z" inkscape:connector-curvature="0"/>
      <path id="path964" style="fill-rule:evenodd;fill:#8361ce" d="m11.527 69.441-1.359 1.84c1.602-1.039 3.055-3.079 4.359-6.121 1.36-3.227 2.575-5.25 3.641-6.079 2.371-1.867 6.066-5.402 11.078-10.601-0.184-0.133-1.051 0.574-2.598 2.121-0.878 0.879-2.894 2.531-6.039 4.957-3.066 2.402-4.679 3.684-4.839 3.844-0.243 0.265-0.469 0.773-0.68 1.519-0.32 1.332-0.707 2.598-1.16 3.797-0.59 1.574-1.387 3.149-2.403 4.723z" inkscape:connector-curvature="0"/>
      <path id="path966" style="fill-rule:evenodd;fill:#25337c" d="m31.727 67.96-4.957 3.039c4.746-1.332 9.144-4.425 13.199-9.277 2.027-2.402 3.586-4.68 4.679-6.84-0.8 0.797-2.492 2.879-5.082 6.238-1.597 2.106-4.211 4.387-7.839 6.84z" inkscape:connector-curvature="0"/>
      <path id="path968" style="fill-rule:evenodd;fill:#25337c" d="m51.727 69.679 1.761-2.32c1.387-1.946 2.574-3.973 3.559-6.078 1.601-3.387 2.801-7.481 3.601-12.282-0.878 2.746-1.945 5.774-3.199 9.082-0.773 2.051-1.961 4.598-3.562 7.641l-2.16 3.957z" inkscape:connector-curvature="0"/>
      <path id="path970" style="fill-rule:evenodd;fill:#25337c" d="m100.41 65.722-1.64 2.758c2.078-2.16 3.343-4.32 3.796-6.481 0.243-1.093 0.27-1.957 0.082-2.597-0.32 2-1.066 4.105-2.242 6.32z" inkscape:connector-curvature="0"/>
    </g>
  </g>
<metadata><rdf:RDF><cc:Work><dc:format>image/svg+xml</dc:format><dc:type rdf:resource="http://purl.org/dc/dcmitype/StillImage"/><cc:license rdf:resource="http://creativecommons.org/licenses/publicdomain/"/><dc:publisher><cc:Agent rdf:about="http://openclipart.org/"><dc:title>Openclipart</dc:title></cc:Agent></dc:publisher></cc:Work><cc:License rdf:about="http://creativecommons.org/licenses/publicdomain/"><cc:permits rdf:resource="http://creativecommons.org/ns#Reproduction"/><cc:permits rdf:resource="http://creativecommons.org/ns#Distribution"/><cc:permits rdf:resource="http://creativecommons.org/ns#DerivativeWorks"/></cc:License></rdf:RDF></metadata></svg>
