<?xml version="1.0" encoding="UTF-8" standalone="no"?>
<svg id="svg4136" xmlns:rdf="http://www.w3.org/1999/02/22-rdf-syntax-ns#" xmlns="http://www.w3.org/2000/svg" height="214" viewBox="0 0 266 214" width="266" version="1.1" xmlns:cc="http://creativecommons.org/ns#" xmlns:xlink="http://www.w3.org/1999/xlink" xmlns:dc="http://purl.org/dc/elements/1.1/">
<defs id="defs4140">
<linearGradient id="linearGradient4175">
<stop id="stop4177" stop-color="#ffed2f" offset="0"/>
<stop id="stop4179" stop-color="#800080" offset="1"/>
</linearGradient>
<radialGradient id="radialGradient4181" xlink:href="#linearGradient4175" gradientUnits="userSpaceOnUse" cy="92.64" cx="190.61" gradientTransform="matrix(.95778 -.0045943 .0055091 1.1485 7.5377 -12.309)" r="75.821"/>
<radialGradient id="radialGradient4189" xlink:href="#linearGradient4175" gradientUnits="userSpaceOnUse" cy="163.3" cx="87.886" gradientTransform="matrix(.77321 -.038266 .053561 1.0822 11.186 -11.959)" r="74.179"/>
</defs>
<path id="path4162" d="m85.3 79.077c-1.5388-0.16288-2.8836 1.707-1.7921 2.992 0.82324 1.0044 2.4928 0.15417 3.1287 1.4565 1.2447 1.6725 1.0877 4.0358-0.21566 5.628-1.2986 2.1064-1.1756 4.7169-1.5108 7.0306-2.0415-4.8706-3.0766-10.526-7.0408-14.316-2.9464-2.7925-7.3464-2.6048-11.053-1.8781-2.1447 0.3589-4.5472 0.97913-5.6952 3.0244-1.8506 2.6465-2.8527 5.7551-3.5581 8.8716-1.2366 1.9778-3.7278 2.5996-5.1248 4.4528-3.274 3.7839-4.8753 8.7727-5.5307 13.662-0.03769 2.7891-0.36342 5.6766 0.3864 8.3977 0.61646 1.6376 1.7968 3.3674 3.7339 3.4178 6.6503 0.79588 13.71-0.10459 19.974 2.7232 12.978 7.5495-5.0295-1.5544-11.391-1.5718-3.3106-0.18597-6.6884-0.008-9.938-0.57077-2.4299-0.94065-4.7911-2.1747-7.4416-2.3786-2.14-0.0631-3.9586-1.1844-6.0441-1.5377-2.4726-0.11818-4.6831 1.3986-6.6301 2.7462-1.8682 1.2906-1.597 3.7405-1.6155 5.7206-0.08539 3.6729-1.7015 7.0653-3.6264 10.126-0.90044 1.4853-3.1282 2.2346-2.9971 4.23-0.04181 3.2973 1.1793 6.999-0.96698 9.9163-1.8715 2.7111-5.2345 3.1844-8.23 3.7714-2.5214 0.58306-5.8104 1.1747-6.7825 3.9628-0.33921 1.3707-0.21872 2.9236-1.2827 4.0347-1.5397 1.5759-2.8192 3.7504-2.1836 6.0257 0.91913 3.7652 4.3145 6.6884 8.021 7.537 1.9935 0.16648 4.1303 0.18754 5.8316-1.0392 1.7153-1.0813 3.7818-1.669 5.8112-1.4714-2.1428 1.3122-4.951 1.3793-6.8149 3.1338-1.1123 1.465 0.4262 3.0561 1.394 4.1121 0.4377 0.46736 1.0224 1.0192 0.17034 1.4233-0.96004 1.1802-2.8853 1.9887-2.9216 3.7015 0.42292 1.7093 2.6192 1.3049 3.9432 1.3465 2.8052-0.09 5.7562-0.42134 8.4478-0.38028-3.0128 0.75972-6.1655 0.47377-9.1955 1.151-1.171 0.31195-2.1956 1.9165-1.0373 2.8494 2.436 1.4974 2.8246 4.775 5.2131 6.3582 2.9364 2.261 6.7703 2.8248 10.381 2.6505 2.603 0.0455 5.2024-0.2556 7.7323-0.86618-0.84722 0.69835-2.4406 1.8547-1.3776 3.0385 2.1464 2.0774 4.9321 3.7776 8.032 3.5561 5.7261-0.22769 11.139-2.8812 15.574-6.3875 10.858-15.225 14.961-13.686 1.8414-0.8736-1.2439 0.66993-2.6667 2.2652-1.6413 3.6854 1.7937 1.5866 4.3359 2.0322 6.6481 2.32 3.1087 0.33409 6.2914-0.12138 9.3603 0.51182 3.9495 1.2519 6.5616 4.9604 10.521 6.1484 2.8495 0.63047 5.7981-0.16486 8.2044-1.739 1.7211-1.0839 3.6795-1.6593 5.6068-2.216 2.4213-1.6085 3.4225-4.5643 4.6096-7.0863 0.80303-1.7451 1.3544-3.8763 2.1706-5.4528 1.4927 2.1288 2.1921 4.7814 3.966 6.7032 2.7417 1.991 6.4102 1.0916 9.3991 0.21006 6.1301-1.8899 12.097-5.4479 15.276-11.21 1.745-2.918 2.6993-6.5184 1.8939-9.8772-0.71985-2.3287-3.0183-4.1561-5.5194-3.828-3.7785-0.24433-6.9612 2.6939-10.68 2.3652-12.616-8.7357-11.523-1.7865 0.13831-0.59113 2.2589 0.24187 4.1762-1.0718 6.098-2.0144 3.4629-1.4552 7.6478-0.13326 10.827-2.3754 1.4543-1.0212 1.6853-3.0801 0.76903-4.5364-0.28803-0.85462-1.0353-1.6549-1.0871-2.545 2.5276-1.6824 4.6325-4.0288 5.734-6.8891 2.591-6.1828 2.9927-13.117 2.0158-19.692-0.32963-2.3071-1.8382-4.311-1.9769-6.6313 1.1084-3.274 3.9084-5.7914 4.711-9.2154 0.49915-1.4261-0.94295-2.7918-2.3477-2.318-3.0983 0.77233-5.8329 2.6458-9.0149 3.1842-3.8999 0.76045-8.5544 0.66005-11.533-2.3207-2.274-2.4974-1.3099-6.294-3.1482-8.9774-1.5142-1.5009-3.8919-1.323-5.8387-1.7784-1.8186-0.16178-3.6507-0.80907-5.461-0.58807-1.4719 1.8855-2.6339 4.0307-3.889 6.0765 2.0664-4.0023 3.3898-8.4329 3.2615-12.97 0.14955-5.1609-0.76904-10.762-4.4868-14.622-1.2696-1.386-2.7606-2.8563-2.9404-4.8189-0.49449-1.6421-2.253-2.1469-3.7866-2.1457-2.6797-0.32608-5.5433-0.07559-8.0589-1.1701-2.1978-1.6169-4.5567-3.3779-7.4182-3.3737zm21.298 43.565c-2.0283 9.1804-2.4144 5.2172 0.0703-0.20589l-0.0647 0.1893-0.006 0.0166zm-46.113 51.247c-40.323 26.741-20.161 13.37 0 0z" fill="url(#radialGradient4189)"/>
<path id="path4154" d="m175.42 3.3359c-2.7812-0.010973-5.7196 1.2323-7.1777 3.6777-0.0973 0.29341-0.0803 0.53538-0.002 0.74414l-0.41016 0.14648c-1.1182 1.4005-0.0961 3.789-1.6523 4.9023-0.94048 0.63273-2.2993 0.68726-2.9609-0.36524-0.88356-0.91282-1.7707-2.2662-3.2422-1.7305-3.4539 0.39719-5.6795 3.5698-7.3047 6.3379-2.316 3.8823-2.6376 8.4821-4.0449 12.688-0.37776 1.2817-1.3718 2.3982-2.8008 2.3633-3.7244 0.50976-6.2481 3.7605-8.25 6.6465-2.1616 3.5157-4.1029 7.7454-3.1875 11.961 0.67061 3.1162 3.8397 4.9423 6.8555 5.0449 3.5753 0.16636 6.9911-1.287 10.535-1.1211 2.6137-0.11533 5.2678 0.10666 7.8555-0.18359 0.46606-0.10306 2.9029-1.1337 1.7207-0.45117-2.7288 1.6408-6.0716 1.0331-9.0976 1.3164-5.6709 0.0879-11.658 1.153-16.256 4.6836-1.09 0.86926-2.5343 2.6177-1.3633 3.9473 1.4997 1.0627 2.9006-1.0393 4.418-0.7168 1.5629 1.038 3.0466 2.3298 4.9199 2.8086 0.52396 1.4644 1.6784 2.5683 2.4336 3.875-1.3222 1.2813-3.4547 1.1388-5.1738 0.99805-2.9908-0.1258-5.2068-2.3074-7.8438-3.3867-3.0938-0.83004-5.9902 1.161-8.6602 2.4219-3.8763 1.9697-7.66 4.8539-9.0996 9.1289-1.8094 4.6408-1.1648 9.7217-1.4609 14.582-0.0942 3.741-0.14137 7.5215-0.89258 11.209-0.37135 2.3549 0.41939 5.1068 2.7617 6.1328 2.3859 1.2153 5.182 0.67522 7.7539 0.72461 5.4542-0.35056 10.671-2.1348 15.984-3.2754-0.96535 0.39555-2.772 0.9145-2.1641 2.3125 0.0516 0.47436 1.3532 0.80734 0.52344 1.0078-2.2118 0.5503-4.8024 0.48494-6.5312 2.1914-0.41104 1.6276 1.6642 1.5817 2.7461 1.4727-2.4193 0.75749-5.076 1.0826-7.2422 2.4609-1.3231 1.3072-0.29559 3.299-0.23828 4.877 0.11534 1.1474 0.36058 2.7623 1.8262 2.8086 4.1634 0.25858 8.2979-0.6381 12.443-0.91797 4.3137-0.60625 7.6382-3.7442 11.098-6.1152 3.0654-2.2527 6.1084-4.5507 9.3496-6.5488-2.6947 3.025-5.7167 5.7737-8.418 8.7676-0.46648 1.6253-0.004 3.4416-0.11133 5.1406 0.0353 4.3279 0.093 8.7672 1.7559 12.84 1.2572 3.1345 2.8311 6.6516 6.0137 8.2266 1.4493 0.54331 3.2417 0.23562 4.127-1.1348 0.83511-0.59372 1.1833-2.1968-0.11328-2.457-0.70286 0.12437-1.0169 0.10621-0.52929-0.64257 1.5454-2.2347 4.4394-2.8424 6.7988-3.8633 0.99042-0.33414 2.1217-0.76803 3.1758-0.85742 0.1326 2.4226-0.0426 5.1367 1.6914 7.0879 1.0955 1.3168 1.915 3.0058 3.3652 3.9512 1.5147 0.15292 1.7089-1.774 2.375-2.7266 0.53746-1.0317 1.1279-2.1558 1.9355-3.1016 0.26989 3.2346-0.20907 6.5313 0.32032 9.75 0.053 0.66322 1.1852 0.91771 0.64648 1.6133-0.47281 1.5456-2.4793 3.1508-4.0195 2.0273-0.72526-1.0507-1.4505-2.8632-3.0606-2.4707-1.9167 0.85813-1.5403 3.6037-0.34765 4.9414 2.942 3.4042 7.5746 4.5541 11.785 5.5332 3.5574 0.64615 7.6766 1.7823 10.922-0.45312 3.9428-3.031 7.1924-6.8647 10.932-10.137 0.98912-0.92112 2.0935-1.9721 3.5664-1.625 2.0444-0.12588 4.1784 0.25333 6.168-0.19336 3.237-1.2126 5.7149-3.9501 6.8047-7.2051 1.5302-3.9432 1.2939-8.3067 0.6875-12.412-1.0407-5.6931-4.3361-10.643-8.1328-14.887-0.8071-0.95418-1.6273-1.9511-2.3477-2.9121 3.7103 3.292 7.3616 6.656 10.256 10.717 0.75177 1.2524 1.4429 3.2138 3.2774 2.9375 1.8792-0.3094 3.7366-1.0917 5.668-0.55274 3.1123 0.42957 6.8456 1.4368 9.4883-0.86718 2.6795-2.4782 3.2424-6.3733 3.5234-9.8281-0.0401-1.7096-1.9703-2.3002-3.3984-2.1055-0.35735-0.0234-1.7107 0.04-0.89062-0.19922 4.9558-1.5288 10.743-2.6622 14.211-6.9746 1.588-1.9976 0.78482-5.0883 2.9394-6.7539 2.4578-3.0246 1.045-7.7713-2.0254-9.8203-1.0639-0.72935-2.0265-1.7311-3.2852-2.0742-2.1158 1.0882-3.3511 3.6072-5.6953 4.3652-1.1423-0.30891-2.9825-0.64095-3.1523-2.0723 0.79189-2.6162 3.1134-4.3983 5.0547-6.1836 1.2474-1.2334 3.2272-2.1043 3.6152-3.9551 0.22944-2.786-0.53277-5.7203-2.125-8.0215-1.3736-1.7474-3.7797-0.62808-5.3086 0.29688-3.2099 2.1895-6.4147 4.4123-9.9356 6.0918-1.1357 0.57308-2.2871 1.1188-3.4277 1.6113 5.272-2.685 10.043-6.2028 15.113-9.2227 1.8711-0.64717 2.4255-2.7074 2.7109-4.4375 0.63139-4.1127 4.2571-6.6441 6.7207-9.6621 2.2732-2.6255 4.5238-6.0411 3.7734-9.6797-0.58963-1.8773-2.5635-2.6156-4.1484-3.416-0.83587-0.94026-0.38987-2.4372-0.64454-3.5508-0.0808-2.1346-0.10994-4.631-2.0098-6.0469-1.5002-1.2406-3.125-2.6974-5.1328-2.9043-1.9083 0.37734-2.4208 2.6497-3.125 4.1719-0.44918 0.89387-0.74799 2.0905-1.6797 2.5957-1.393-0.19375-1.7984 1.2424-1.4414 2.3359-2.558 7.2791-1.0087 3.8697-0.9707-0.68555-0.49273-1.3545-2.0584-0.37989-2.5 0.55078-0.58008 0.84556-0.98819 1.8807-1.4961 2.7148 0.16475-0.8307-0.72625-1.5246-0.91016-2.0273 1.9196-1.9841 2.6578-4.8467 4.0156-7.0898 0.60274 0.823 2.1 0.81099 2.2422-0.36328 0.53896-3.7621 0.31839-7.5779 1.2246-11.273 0.54805 0.87241 2.0858 1.7084 2.6895 0.41406 0.47522-2.1312-1.63-4.1471-3.7031-4.1934-0.2816-0.02525-0.56318-0.02943-0.8457-0.02148-3.6674 0.32934-7.1969 1.7416-10.389 3.5293-3.0693 1.7243-5.2936 5.0403-5.1543 8.6309-0.28677 4.391 1.3506 8.72 0.65039 13.096-0.12869 3.2917-0.80599-5.3308-1.2188-6.4551-0.91278-2.7214-1.7134-5.8943-4.4336-7.3906-2.8904-1.8385-6.1387-3.1279-8.7637-5.3633-2.5271-1.224-5.4884-0.31259-8.082-1.1562-1.4646-1.7907-2.1089-4.1398-3.4355-6.0469-0.98239-1.4077-2.3594-3.3801-4.3242-3-1.962 0.85405-1.7143 3.4607-1.3516 5.1895 0.96823 4.5314 3.0784 9.0372 2.3613 13.768-1.9219-5.8236-2.0122-12.272-5.1094-17.682-1.9222-2.9458-4.5592-5.3614-7.1074-7.7578-0.8751-0.85326-1.9345-1.4868-3.1797-1.3262 0.13317-0.53649-0.0619-1.1565-0.69141-1.3945-3.27-1.6946-6.86-2.9971-10.6-2.8998z" fill="url(#radialGradient4181)"/>
<path id="path4196" d="m177.46 1.4805c-4.8452 0.1128-9.2524 2.3842-11.604 6.7773-0.83474 1.5597-1.6949 1.808-4.4609 1.2891-4.3921-0.82397-8.0266 2.8475-12.875 13.006-2.2544 4.7234-4.2175 7.4413-5.9453 8.2285-1.42 0.648-2.58 1.836-2.58 2.642 0 0.8056-0.7875 2.0528-1.75 2.7715-5.452 4.0709-6.783 15.052-2.4336 20.078 1.9892 2.299-1.8058 6.4508-11.084 12.125-8.9391 5.4669-13.37 13.115-12.555 21.668 0.46483 4.8742 0.70317 4.9682-3.5176-1.3906-4.713-7.1004-5.999-8.0561-9.8145-7.293-2.3722 0.47444-4.2448-0.0094-7.5781-1.9629-3.3226-1.9472-5.0928-2.4082-7.0977-1.8477-1.469 0.41069-6.5694 0.78738-11.336 0.83789-9.9445 0.10539-12.385 1.5401-15.967 9.3906-1.079 2.3648-2.6389 4.5612-3.4668 4.8789-0.82786 0.31768-3.3223 4.1908-5.543 8.6074-3.9677 7.8913-4.3505 10.362-2.3398 15.098 0.75327 1.7742 0.41261 1.8435-5.877 1.1699-8.263-0.88-13.64 3.02-13.64 9.91 0 4.0382-1.0939 6.5883-4.6699 10.887-2.0348 2.4458-2.281 3.5297-1.7383 7.6211 0.72893 5.4949 0.56116 5.671-6.7559 7.0586-11.634 2.21-15.639 14.81-7.9356 24.97 1.4592 1.925 3.1944 4.7375 3.8555 6.25 0.66106 1.5125 1.627 2.75 2.1484 2.75 0.52143 0 2.3758 2.494 4.1191 5.541 3.8724 6.7683 5.9544 8.2041 14.078 9.7148 3.4829 0.64772 7.1231 1.9688 8.0898 2.9356 2.9408 2.9408 6.2534 3.1245 13.746 0.75976l7.0742-2.2324 10.244 2.7168c5.6345 1.4946 12.473 3.8099 15.197 5.1445 2.8249 1.3841 5.8322 2.1852 7 1.8652 3.6285-0.99426 9.9443-3.5473 13.939-5.6348 2.1404-1.1184 7.0904-2.4345 11-2.9238 4.3012-0.53835 8.1545-1.661 9.7578-2.8438 1.4573-1.0751 3.7599-2.2336 5.1172-2.5742 5.463-1.3711 13.395-17.663 10.17-20.889-1.417-1.417-1.417-1.7699 0-3.793 0.85952-1.2271 1.5625-3.4567 1.5625-4.9531 0-1.548 0.82716-3.2985 1.918-4.0625 3.9262-2.75 6.8841-24.534 4.0508-29.828-0.76829-1.4356-0.5934-2.7535 0.68359-5.1836l1.7129-3.2598 0.7168 2.5c0.39496 1.375 0.76356 4.0332 0.81836 5.9062 0.11647 3.9794 4.1473 9.7821 7.7461 11.15 5.5114 2.0954 13.228 2.7124 13.844 1.1074 1.398-3.643 4.0439 1.4703 2.6934 5.2051-0.91023 2.5172-0.94535 4.1278-0.13476 6.2598 0.60027 1.5788 0.94764 3.0191 0.77148 3.2012-0.91918 0.94995 5.2454 3.0039 9.0176 3.0039 2.3903 0 5.6425 0.53527 7.2266 1.1914 3.5814 1.4835 9.7843-2.0069 14.35-8.0762 2.5583-3.4011 3.5269-3.9231 8.4258-4.5352 9.4328-1.1786 13.262-5.6958 13.512-15.934l0.2-7.97 7.81-0.5c8.31-0.53 13.64-4.01 13.64-8.91 0-1.78 6.15-8.09 7.88-8.09 4.7387 0 6.7806-18.672 2.625-24-0.64345-0.825-1.7108-4.5721-2.373-8.3262-0.66229-3.7541-1.7354-7.675-2.3848-8.7148-0.99325-1.5905-0.74941-2.342 1.5352-4.7266 6.3405-6.618 8.9804-17.948 5.2227-22.414-1.375-1.6341-2.5048-3.9492-2.5098-5.1445s-1.5803-4.1496-3.5-6.5645c-2.2711-2.857-3.4972-5.4769-3.5117-7.5-0.0463-6.4741-4.8776-9.4026-11.695-7.0879-6.6643 2.2626-7.8805 3.0908-10.309 7.0195-2.5553 4.1346-5.2374 4.1005-12.562-0.16211-2.26-1.309-5.28-2.38-6.73-2.38-1.7826 0-3.2148-0.89248-4.4121-2.75-2.4483-3.7982-5.2696-5.9873-8.5742-6.6543-1.5853-0.31998-5.0572-2.8981-8-5.9395-4.1054-4.2428-9.3892-6.2886-14.234-6.1758zm-1.4961 2.7402c4.5733 0.028064 10.359 2.4234 15.232 7.1719 5.8744 5.7239 6.6758 7.4301 8.8477 18.857 0.60107 3.1625 1.4594 5.75 1.9062 5.75 1.9083 0 1.6882-5.8625-0.45703-12.203-3.1643-9.3528 1.2555-10.258 5.1504-1.0547 1.2489 2.9509 1.7385 3.2274 5.4492 3.082 2.2425-0.08787 4.3759 0.30683 4.7402 0.875 0.37 0.568 2.69 2.053 5.17 3.301 5.2775 2.6607 5.5531 3.0057 7.4688 9.3164 1.2487 4.1136 1.2647 5.4263 0.10352 9-0.74768 2.3012-1.6566 6.6108-2.0195 9.5781-0.88517 7.2361-9.8465 20.661-15.455 24.207l2.0918-0.20117c0.60404-0.86633 2.3272-2.2473 5.166-4.0918 4.9439-3.2123 9.1905-6.4883 12.391-9.5586 1.2898-1.2375 2.5458-2.25 2.791-2.25 0.24524 0 2.5094-1.575 5.0312-3.5 5.1042-3.8961 7.3232-4.2731 10.998-1.8652 2.7251 1.7856 4.0168 1.329 3.0879-1.0918-0.33-0.849-1.49-1.543-2.57-1.543-1.0848 0-2.2374-0.43105-2.5625-0.95703-0.32507-0.52598-1.2512-0.7024-2.0586-0.39258-1.6632 0.63825-2.0227-1.19-0.42773-2.1758 0.57237-0.35375 0.76608-1.5049 0.43164-2.5586-0.33-1.054-0.17-1.916 0.36-1.916 0.52822 0 1.212-0.65565 1.5195-1.457 0.453-1.1805 0.0805-1.2754-1.959-0.5-3.7837 1.4386-3.9352 1.1945-0.96875-1.5547 1.9258-1.7848 2.5245-3.0943 2.0703-4.5254-0.41389-1.304-0.2172-1.9164 0.55664-1.7383 0.65724 0.15132 1.7025-1.1543 2.3242-2.9023 1.6224-4.5616 2.1644-4.7913 5.5742-2.3633 2.6014 1.8523 3.0566 2.8208 3.0566 6.4922 0 3.4706 0.38967 4.4183 1.9941 4.8379 4.826 1.262 3.6762 7.1435-2.5664 13.125-3.1769 3.044-4.6845 5.3974-5.0996 7.9551-0.33 1.998-0.98 3.631-1.46 3.631-0.47676 0-3.0054 1.5224-5.6191 3.3828-2.6138 1.8605-7.227 4.631-10.252 6.1562s-4.9925 2.9457-4.373 3.1582c1.7299 0.59331 12.066-4.288 16.475-7.7793 2.1651-1.7148 4.5755-2.8716 5.3555-2.5723 2.1692 0.83241 3.8772 7.897 2.2129 9.1543-8.2607 6.2406-10.166 9.9807-5.9082 11.6 2.192 0.83342 2.9972 0.59656 5.0938-1.5l2.4902-2.4902 2.8262 2.0137c3.1797 2.2641 3.8556 6.7794 1.3281 8.877-0.825 0.68469-1.5197 2.4279-1.543 3.873-0.0524 3.2551-5.0914 6.731-12.104 8.3496-5.4683 1.2622-6.4315 2.7773-1.7656 2.7773 3.0706 0 3.0839 0.0238 2.4219 4.25-0.89186 5.6931-3.7902 8.1679-8.4863 7.2461-4.6903-0.92067-6.1928-0.92745-8.2598-0.0391-1.2809 0.55057-1.9765 0.12962-2.6523-1.6055-1.23-3.13-14.12-15.53-14.12-13.57 0 0.83412 2.6642 4.4563 5.9199 8.0488 11.152 12.306 7.7984 33.318-4.9726 31.16-3.4819-0.58826-3.9607-0.29624-10.611 6.4473-7.3212 7.4234-7.3463 7.4318-15.836 5.8613-6.6931-1.2381-11.923-4.077-12.318-6.6875-0.36456-2.4081 1.3099-2.878 2.1797-0.61133 0.86029 2.2419 4.4041 1.8081 5.748-0.70312 0.78355-1.4641 0.83016-2.3177 0.14257-2.5469-0.62887-0.20962-0.8385-2.5284-0.53711-5.916 0.55601-6.2497-1.0572-7.0634-3.6094-1.8223l-1.3945 2.8633-2.3965-2.9375c-1.5905-1.9486-2.2741-3.8633-2.0293-5.6875 0.20549-1.5312-0.10941-2.7424-0.70899-2.7344-1.9324 0.027-8.3042 2.5153-9.959 3.8887-1.842 1.5287-2.2488 4.6038-0.46289 3.5 0.69282-0.42819 0.88455-0.27612 0.47851 0.38086-3.4804 5.6313-10.624-4.7664-10.629-15.471l-0.004-8.1836 5.6152-5.6172c8.4119-8.4119 4.5743-7.1677-8.6152 2.791-5.6868 4.2938-8.1862 5.6051-10.59 5.5566-1.0502-0.0212-4.2727 0.28907-7.1602 0.68945-4.1607 0.57692-5.2529 0.43892-5.2637-0.66211-0.008-0.76411-0.27078-2.3427-0.58399-3.5098-0.51349-1.9133 0.12692-2.2942 6.5137-3.8594 8.1222-1.9904 9.3052-3.0855 2.334-2.1621-3.254 0.43107-4.2777 0.32041-3.25-0.34961 0.825-0.53786 2.4864-0.98419 3.6914-0.99219 2.5331-0.0177 3.9149-1.6001 2.0644-2.3633-0.76681-0.31625-0.37927-0.78369 0.99414-1.2012 1.2375-0.37616 2.25-1.1336 2.25-1.6836 0-0.56043-0.98904-0.71885-2.25-0.35938-20.633 5.8822-27.692 4.6474-25.199-4.4062 0.37896-1.3765 0.6066-6.552 0.50586-11.502-0.24239-11.911 2.0064-16.578 9.9746-20.695 6.5117-3.3648 7.3049-3.4135 11.139-0.68359 4.5804 3.2615 13.89 1.7964 10.449-1.6445-0.89-0.896-1.62-2.044-1.62-2.554 0-0.511-0.53-0.928-1.17-0.928-0.64418 0-2.0181-0.76699-3.0547-1.7051-1.5443-1.3975-2.2372-1.487-3.8301-0.49219-1.0692 0.66775-1.9357 0.87224-1.9277 0.45508 0.0733-3.6293 9.34-7.2883 17.838-7.0449 5.0102 0.14347 7.3315-0.2622 9.4277-1.6465 3.503-2.3132 2.7579-3.2389-1.2656-1.5723-1.6767 0.69452-4.5851 1.0137-6.4629 0.70898-1.8778-0.30473-5.9193 0.02669-8.9805 0.73828-6.37 1.481-10.57-0.83-10.57-5.81 0-6.325 6.56-15.631 11.01-15.631 2.5989 0 3.6868-1.8679 4.8887-8.3965 1.68-9.116 8.76-16.2 11.6-11.604 1.4641 2.3689 5.5001 1.0879 5.5137-1.75 0.0226-4.7185 3.3818-7.0574 7.9551-7.0293zm70.037 16.285c2.4414-0.11978 4.005 0.9199 3.9785 2.8672-0.008 0.62016-0.43365 0.46532-0.94532-0.34375-1.4155-2.2382-2.1438-0.76127-2.5293 5.125-0.19255 2.9405-0.39312 5.7957-0.44532 6.3457s-0.4754 0.40194-0.93945-0.33008c-0.60256-0.95051-1.2996-0.18968-2.4414 2.6641-0.87936 2.1977-2.1162 4.3145-2.748 4.7051-0.8548 0.52829-0.83967 0.9026 0.0605 1.459 0.94204 0.58224 0.92975 1.2742-0.0566 3.125-1.1801 2.2142-1.1447 2.2769 0.50196 0.91797 0.97234-0.8024 2.1833-2.5523 2.6914-3.8887s1.183-2.1705 1.5-1.8535-0.14691 2.0242-1.0293 3.793c-2 4.021-2.03 5.909-0.1 5.909 1.683 0 1.7503 0.1829 0.89258 2.418-0.78 2.041-3.39 2.06-3.39 0.023 0-0.86799-0.48263-1.2608-1.0879-0.88672-0.59766 0.36953-0.86375 1.5226-0.5918 2.5625 0.27615 1.056-0.37196 2.8821-1.4688 4.1367l-1.96 2.246 1.0918-2.25c0.60041-1.2375 0.80572-2.25 0.45703-2.25-0.34868 0-1.9396 1.3973-3.5352 3.1055-3.3767 3.6148-3.8114 2.9838-0.83008-1.2031 2.2946-3.2224 0.63398-7.2062-1.9336-4.6387-1.6356 1.6356-1.4809-1.0348 0.36328-6.2617 1.2061-3.4184 1.2968-5.517 0.46484-10.725-1.5419-9.6518 0.76223-12.956 11.334-16.256 0.9825-0.3067 1.8932-0.4757 2.707-0.51562zm-74.06 30.494c-1.7503 0-0.96164 2.1993 1.4766 4.1172 1.7001 1.3373 2.871 3.8769 3.9336 8.5352 1.1394 4.9954 2.2707 7.3243 4.5801 9.4336 1.6865 1.5404 3.0664 3.4011 3.0664 4.1348 0 0.73362 0.72046 2.3631 1.6016 3.6211 0.8811 1.2579 1.8372 2.0514 2.125 1.7637 1.1009-1.1009-2.9677-9.2194-5.8203-11.613-2.4835-2.0841-3.1448-3.6063-3.9023-9-0.87-6.256-3.92-10.993-7.06-10.993zm-24.42 21.145c-0.6453 0.0081-1.3349 0.09428-2.0254 0.26758-3.1086 0.78021-3.2462 2.3327-0.24805 2.8008 2.9369 0.45853 5.75-0.20805 5.75-1.3613 0-1.0623-1.5407-1.7313-3.4766-1.707zm-62.039 7.8516c1.4648-0.033 3.6876 0.75728 5.1289 2.1113 1.6433 1.5438 3.6656 2.1453 7.5644 2.25 4.6912 0.12594 5.3593 0.40711 5.6387 2.373 0.17432 1.2265 1.3203 3.0265 2.5469 4 5.5447 4.4006 6.4568 18.382 1.7441 26.732-1.7095 3.0291-3.1055 6.0756-3.1035 6.7715 0.006 1.7833-1.4806 5.3858-3.3125 8.7969l3.2226-2.418c1.1989-2.4174 2.0969-4.8346 2.1055-5.8477 0.0105-1.2458 1.3755-4.4291 3.0352-7.0723l3.0176-4.8047 4.7148 0.6836c6.1592 0.89276 5.9213 0.66587 6.707 6.3789 1.0122 7.3595 10.875 9.4696 20.707 4.4316 4.815-2.4671 5.2185-0.48521 1.1543 5.6562-2.5885 3.9115-2.6102 4.0742-1.0039 7.7285 3.501 7.9649 0.72305 23.989-4.7852 27.598-2.5676 1.6823-2.6262 1.8942-1.1504 4.1465 2.1873 3.3383-0.084 5.4883-5.7969 5.4883-2.3306 0-5.1101 0.66124-6.1777 1.4688-3.2295 2.4426-6.9223 1.8069-11.441-1.9688-6.935-5.794-8.4418-4.2903-2.002 1.998 4.4529 4.3482 8.715 5.0652 14.717 2.4766 13.813-5.9578 12.336 13.008-1.541 19.785-8.1462 3.9783-13.726 4.3403-15.242 0.99023-2.7863-6.1572-3.7843-7.3196-4.4785-5.2148-2.6655 8.0814-5.094 12.433-6.9531 12.455-1.1 0.013-3.35 0.91702-5 2.0098-3.9803 2.6361-7.724 2.5182-11.174-0.35156-4.185-3.4814-7.1303-4.8106-10.139-4.5762-8.1522 0.63515-15.267-1.8903-11.303-4.0117 1.037-0.55498 3.4628-3.3833 5.3906-6.2852 3.3718-5.0755 6.0239-7.9824 7.6543-8.4297l-1.3457-1.793c-0.22807 0.20584-0.45665 0.41955-0.68164 0.61524-3.2612 2.8365-7.2082 7.2321-8.7695 9.7695-5.0777 8.2523-19.344 14.044-24.535 9.9609l-2.8711-2.2578 2.3867-1.9648 2.3867-1.9648-3 0.72461c-10.237 2.4739-17.959 0.9357-20.406-4.0645-0.77291-1.5795-1.7854-3.0217-2.25-3.2051-2.086-0.83-0.52-2.17 2.539-2.17 4.9388 0 9.6743-1.111 9.0488-2.123-0.29902-0.48381-3.6673-0.58912-7.4844-0.23437-7.3998 0.68774-8.2368 0.22784-4.7402-2.6035 2.0708-1.6768 2.1002-1.8822 0.5-3.4824-2.4761-2.4761-2.1489-3.1063 2.3008-4.4394 2.2-0.65914 4-1.6303 4-2.1582 0-1.4795-5.2641-1.0746-7.4414 0.57227-6.5042 4.92-17.294-5.36-11.059-10.53 0.825-0.68 1.5-2.33 1.5-3.64 0-2.6403 2.0444-3.8274 8.3594-4.8574 6.0804-0.99174 8.9302-4.7551 8.1113-10.709-0.53081-3.8595-0.34935-4.8988 0.9375-5.3926 2.0282-0.77831 5.7404-9.0865 5.5352-12.387-0.26319-4.2311-0.0519-4.6359 3.377-6.4824 2.6382-1.4208 3.7568-1.5567 5.4356-0.6582 1.1623 0.62204 3.2824 1.1309 4.7129 1.1309s3.6172 0.66655 4.8594 1.4805c1.5724 1.0302 4.5239 1.4165 9.7148 1.2734 13.599-0.37474 21.95 5.0948 23.607 15.463 0.64671 4.0443 3.9741 9.8427 6.0371 10.52 1.6085 0.52773-5.0008-15.244-8.4805-20.236-3.7964-5.4463-8.9702-7.7495-18.207-8.1055-4.125-0.15895-7.9788-0.3127-8.5644-0.3418-7.1922-0.35719-3.5691-22.492 4.2969-26.25 1.7377-0.83026 2.8779-2.2486 3.0645-3.8125 0.42284-3.5444 3.3919-8.9292 5.1836-9.4023 11.355-2.9987 14.944-0.70242 19 12.162 1.648 5.217 3.02 5.48 3.02 0.572 0-2.066 0.751-4.501 1.717-5.568 1.904-2.104-0.082-7.545-2.559-7.01-0.637 0.138-1.158-0.2-1.158-0.75 0-0.66767 0.6055-0.9841 1.4844-1.0039zm132.32 2.4746c-0.64843 0.16464-1.1931 0.2746-1.6777 0.35547 0.48451-0.08065 1.0286-0.19066 1.6777-0.35547zm-3.8438 0.11719c0.0144 0.05292 0.0421 0.09896 0.0801 0.14062-0.0381-0.04137-0.0654-0.08807-0.0801-0.14062zm0.14062 0.19531c0.0229 0.01701 0.0579 0.02845 0.0859 0.04297-0.0283-0.01449-0.0629-0.02597-0.0859-0.04297zm1.7656 0.08789c-0.1001 0.01458-0.18706 0.02452-0.2793 0.03516 0.0918-0.01053 0.17967-0.02069 0.2793-0.03516zm-1.4336 0.03906c0.0442 0.0092 0.0942 0.01529 0.14453 0.02148-0.0506-0.0061-0.10013-0.01233-0.14453-0.02148zm-4.1426 0.01758c-0.0159 0.0035-0.033 0.01045-0.0488 0.01367 0.0159-0.0034 0.0328-0.01 0.0488-0.01367zm4.8398 0.01758c-0.0726 0.0034-0.13924 0.0038-0.20508 0.0039 0.066-0.000008 0.13233-0.000531 0.20508-0.0039zm2.1211 15.924c-0.0852 0.17336-0.1136 0.34117-0.0859 0.50781-0.0277-0.16664 0.00077-0.33445 0.0859-0.50781zm-25.86 22.559c0.0699 0.0345 0.14187 0.11452 0.21679 0.23828-0.0756-0.12487-0.14629-0.20431-0.21679-0.23828zm-4.1406 7.1836c0.0442 0.086 0.0921 0.15169 0.14453 0.20313-0.052-0.0513-0.10066-0.11781-0.14453-0.20313zm-82.031 5.9883c-0.111 0.0554-0.22213 0.12842-0.33203 0.23242 0.10962-0.10375 0.22129-0.17714 0.33203-0.23242zm-0.36914 0.26757c-0.11251 0.11265-0.2217 0.26001-0.32812 0.42774 0.10646-0.16801 0.21558-0.31497 0.32812-0.42774zm-0.40039 0.54883c-0.11035 0.19127-0.21722 0.40251-0.31445 0.66016 0.097-0.25702 0.20447-0.46926 0.31445-0.66016zm2.3066 1.2148c-0.008 0.13419-0.0235 0.27441-0.0449 0.41796 0.0215-0.14378 0.0374-0.28356 0.0449-0.41796zm112.19 1.37c-0.61362 0-0.67997 9.1888-0.0781 10.809 0.0631 0.16996 0.56523 0.0313 1.1152-0.30859 1.7518-1.0827 0.82155-10.5-1.0371-10.5zm-121.2 1.1484c-0.0277 0.0336-0.0565 0.0726-0.084 0.10547 0.0276-0.0332 0.0562-0.0715 0.084-0.10547zm-0.65429 0.74023c-0.0508 0.053-0.10652 0.1165-0.15626 0.16602 0.0499-0.0499 0.10528-0.11258 0.15626-0.16602zm16.346 0.33008c0.0357 0.056 0.0526 0.12415 0.0488 0.20898 0.004-0.0854-0.0126-0.15273-0.0488-0.20898zm-16.943 0.22852c-0.0687 0.0568-0.14321 0.13167-0.20899 0.17968 0.066-0.0483 0.14011-0.12257 0.20899-0.17968zm-3.041 1.9434c-0.0992 0.11404-0.18404 0.23016-0.2539 0.34376 0.0699-0.11355 0.15668-0.22979 0.25586-0.34376h-0.002zm-2.5449 2.7402c0.0808 0.0689 0.16014 0.12726 0.24219 0.17578-0.0813-0.0482-0.16219-0.10758-0.24219-0.17578zm-20.079 7.52c0.22905 0.26131 0.50319 0.52644 0.82226 0.78906-0.31853-0.26217-0.59344-0.52818-0.82226-0.78906zm19.141 0.32422c-0.0853 0.051-0.16395 0.12212-0.24023 0.21289 0.076-0.0902 0.15527-0.16214 0.24023-0.21289zm25.129 1.8418c0.0378 0.0368 0.058 0.0834 0.0586 0.13867-0.00059-0.0558-0.0201-0.10165-0.0586-0.13867zm-50.055 3.7598c-0.12449 0.19392-0.11143 0.38057 0.0391 0.55859-0.1499-0.1774-0.16223-0.36538-0.0391-0.55859zm20.576 0.72461c-0.0297 0.0686-0.0617 0.11426-0.0937 0.13476 0.0328-0.0199 0.0634-0.0649 0.0937-0.13476zm8.1211 2.6992c0.0709 0.005 0.14177 0.011 0.21289 0.0176-0.0714-0.007-0.14174-0.0126-0.21289-0.0176zm-1.9277 0.0625c-0.0916 0.0125-0.18118 0.0278-0.27148 0.043 0.0898-0.0151 0.18039-0.0305 0.27148-0.043zm3.1191 0.0937c0.0562 0.0111 0.11176 0.0269 0.16797 0.0391-0.0562-0.0122-0.11168-0.0279-0.16797-0.0391zm-4.1484 0.10937c-0.047 0.0123-0.0961 0.0202-0.14258 0.0332 0.0464-0.013 0.0957-0.0209 0.14258-0.0332zm5.2285 0.17578c0.0436 0.0142 0.0874 0.0261 0.13086 0.041-0.0436-0.015-0.0872-0.0268-0.13086-0.041zm-6.1914 0.14063c-0.0632 0.0256-0.12382 0.053-0.18554 0.0801 0.0616-0.0271 0.1225-0.0545 0.18554-0.0801zm7.2988 0.30273c0.0604 0.029 0.11971 0.0613 0.17969 0.0918-0.0602-0.0306-0.11912-0.0627-0.17969-0.0918zm-8.127 0.10156c-0.0418 0.0241-0.0862 0.0455-0.12695 0.0703 0.0407-0.0248 0.0853-0.0462 0.12695-0.0703zm18.453 0.0996c-0.0755 0.0114-0.15421 0.0283-0.23242 0.043 0.0781-0.0146 0.15705-0.0316 0.23242-0.043zm1.8066 0.13086c0.0282 0.013 0.0514 0.0307 0.0781 0.0449-0.0268-0.0143-0.0498-0.0319-0.0781-0.0449zm-2.5781 0.0332c-0.0883 0.0231-0.17462 0.0455-0.26562 0.0723 0.0906-0.0266 0.17773-0.0493 0.26562-0.0723zm2.9434 0.21679c0.0203 0.0194 0.0438 0.036 0.0625 0.0566-0.0186-0.0206-0.0422-0.0372-0.0625-0.0566zm-21.379 0.0371c-0.0481 0.0398-0.0908 0.082-0.13672 0.12305 0.0458-0.041 0.0888-0.0834 0.13672-0.12305zm21.646 0.35352c0.0114 0.0282 0.0199 0.0582 0.0293 0.0879-0.009-0.0295-0.0179-0.0597-0.0293-0.0879zm-22.201 0.19922c-0.037 0.0439-0.0767 0.0858-0.11133 0.13086 0.0345-0.0448 0.0745-0.0871 0.11133-0.13086zm16.719 0.23047c-0.1264 0.12347-0.2183 0.24831-0.27735 0.375 0.0591-0.12624 0.15332-0.25196 0.2793-0.375h-0.002zm-17.197 0.48437c-0.0655 0.13394-0.12285 0.27123-0.16797 0.41211 0.0452-0.14134 0.10218-0.27776 0.16797-0.41211zm-0.19727 0.52734c-0.0326 0.11786-0.0586 0.23722-0.0762 0.35938 0.0176-0.12176 0.0437-0.24189 0.0762-0.35938zm-0.0937 0.50977c-0.0107 0.11801-0.0134 0.23784-0.01 0.35938-0.004-0.12159-0.001-0.24131 0.01-0.35938zm-0.006 0.50391c0.0129 0.16326 0.0397 0.33125 0.0801 0.5-0.0406-0.16945-0.0671-0.33608-0.0801-0.5zm0.11132 0.60937c0.0377 0.13773 0.0858 0.27709 0.14258 0.41797-0.0566-0.14053-0.10495-0.28057-0.14258-0.41797zm0.21289 0.58399c0.0803 0.17679 0.16946 0.35426 0.28125 0.53515-0.11172-0.18076-0.20098-0.35847-0.28125-0.53515zm-2.5332 3.5781c0.0524-0.005 0.13389 0.0264 0.2168 0.0586-0.0829-0.0322-0.16439-0.0633-0.2168-0.0586zm17.883 0.17969c0.31716-0.0126 0.63409 0.005 0.94727 0.0371-0.31357-0.0325-0.6297-0.0498-0.94727-0.0371zm-17.422 0.002c0.0512 0.0299 0.0982 0.0565 0.15429 0.0937-0.0572-0.038-0.10222-0.0634-0.15429-0.0937zm19.623 0.28516c0.13776 0.0406 0.26648 0.0925 0.39843 0.14062-0.13294-0.0486-0.25959-0.0997-0.39843-0.14062zm-19.109 0.0742c0.0556 0.0441 0.1063 0.0803 0.16406 0.1289-0.0583-0.0491-0.10789-0.0844-0.16406-0.1289zm21.387 1.2012c0.0387 0.0408 0.072 0.0832 0.10742 0.125-0.0354-0.0418-0.0687-0.0842-0.10742-0.125zm-13.551 0.0332c0.16886-0.0141 0.3425 0.006 0.51758 0.043-0.17523-0.0372-0.34857-0.0571-0.51758-0.043zm-0.38672 0.0859c-0.0419 0.0143-0.082 0.0349-0.12305 0.0527 0.0411-0.0179 0.0812-0.0384 0.12305-0.0527zm-33.168 0.0996c-0.16815 0.13972-0.31376 0.27414-0.43945 0.40234 0.12549-0.12787 0.27177-0.26304 0.43945-0.40234zm47.359 0.0918c0.0313 0.0446 0.0586 0.0893 0.0859 0.13477-0.0273-0.0453-0.0547-0.0903-0.0859-0.13477zm-14.582 0.006c-0.0336 0.0222-0.0667 0.0435-0.0996 0.0684 0.0328-0.0248 0.0662-0.0463 0.0996-0.0684zm14.775 0.33204c0.0191 0.0419 0.0372 0.0845 0.0527 0.12695-0.0156-0.0426-0.0335-0.0848-0.0527-0.12695zm-15.219 0.0527c-0.0117 0.0135-0.0216 0.0329-0.0332 0.0469 0.012-0.0144 0.023-0.0329 0.0352-0.0469zm3.0137 0.0684c0.15193 0.13339 0.3015 0.28508 0.44921 0.45312-0.14765-0.16815-0.29732-0.31961-0.44921-0.45312zm-3.3125 0.35547c-0.0302 0.0501-0.059 0.10455-0.0879 0.1582 0.0288-0.0535 0.0578-0.10828 0.0879-0.1582zm15.664 0.23437c-0.002 0.0386 0.00093 0.0765-0.004 0.11524 0.005-0.0388 0.002-0.0766 0.004-0.11524zm-11.77 0.0215c0.14143 0.17279 0.28132 0.36031 0.41601 0.56445-0.13462-0.20419-0.27464-0.3916-0.41601-0.56445zm-4.1719 0.30859c-0.0228 0.0551-0.0467 0.10801-0.0684 0.16602 0.0217-0.058 0.0455-0.11091 0.0684-0.16602zm4.7656 0.55078c0.10001 0.16661 0.19657 0.33923 0.29101 0.52344-0.0944-0.18412-0.19109-0.3569-0.29101-0.52344zm-14.402 0.18555c-0.15484 0.25747-0.34899 0.54552-0.57422 0.85742 0.22414-0.31022 0.41993-0.60087 0.57422-0.85742zm-0.60156 0.89258c-0.19973 0.27531-0.4282 0.57073-0.67383 0.8789 0.24708-0.30948 0.47316-0.60247 0.67383-0.8789zm-15.99 0.8c0.21712 0.22504 0.50155 0.37486 0.8457 0.45312-0.34358-0.0781-0.62871-0.22872-0.8457-0.45312zm14.576 0.96875c-0.36955 0.43653-0.73121 0.86709-1.1543 1.332 0.42669-0.46779 0.78188-0.89291 1.1543-1.332zm-2.4102 2.6504c-0.31092 0.32236-0.61028 0.64295-0.93164 0.96289 0.32409-0.32208 0.61813-0.63842 0.93164-0.96289zm-1.2129 4.7461c-0.0198-0.002-0.0442 0.009-0.0644 0.008 0.062 0.002 0.12372 0.004 0.18164 0.0156-0.039-0.008-0.0764-0.0197-0.11719-0.0234zm0.17774 0.0352c0.0923 0.0247 0.18039 0.0591 0.26172 0.10937-0.0812-0.0502-0.16969-0.0846-0.26172-0.10937zm4.0371 1.3848c0.0172 0.0626 0.0415 0.11261 0.0742 0.1543-0.0322-0.0415-0.0572-0.0923-0.0742-0.1543z"/>
<path id="path4193" d="m95.752 140.94c-1.513 0.53-2.752 1.63-2.752 2.45 0 2.5656-1.9727 2.851-2.9453 0.42578-0.88207-2.1993-1.6991 3.5449-1.1289 7.9356 0.0893 0.6875-0.5337 1.25-1.3828 1.25-1.1033 0-1.5647 1.0701-1.6211 3.75-0.0434 2.0625-0.30658 3.1875-0.58399 2.5-0.278-0.69-1.593-1.25-2.922-1.25-2.014 0-2.416-0.5-2.416-2.97 0-2.3-0.687-3.33-3-4.53-1.65-0.85325-3-1.1318-3-0.61914 0 0.51263-0.9 0.69586-2 0.4082-3.0136-0.78809-2.4904 1.9482 0.75 3.9219l2.75 1.6758-4.1113 0.66211c-8.675 1.3973-8.5245 3.4896 0.2793 3.875 10.656 0.47 11.332 0.57 11.332 1.71 0 0.73827-1.2952 0.9311-3.75 0.55664-2.694-0.41096-5.29 0.0867-9.2168 1.7695-6.3754 2.7321-7.8681 4.806-2.8633 3.9766 2.6209-0.43436 2.1754-0.0589-2.0938 1.7598-6.2605 2.6669-8.2909 5.5043-3.2109 4.4883 2.282-0.46 3.135-0.26 3.135 0.73 0 3.6082 4.9758 2.2898 11.229-2.9746 10.02-8.44 12.771-11.87 12.771-15.91 0-2.0959 0.50719-3.5729 1.25-3.6387 3.3019-0.29239 6.3258 0.44114 7.0488 1.709 0.43983 0.77119 1.6512 1.4023 2.6914 1.4023s2.177 0.46163 2.5254 1.0254c1.03 1.67 14.48-9.8 14.48-12.35 0-0.5643-1.0684-0.0226-2.373 1.2031-3.0249 2.8418-4.5939 0.2436-2.127-3.5215 1.3131-2.004 1.3285-2.3594 0.10547-2.3594-0.79185 0-1.6663 0.5625-1.9453 1.25-0.39482 0.97304-0.71705 0.95077-1.4551-0.10156-1.02-1.45-4.21 1.98-4.21 4.52 0 1.683-4.8617 6.8004-5.6816 5.9805-3.119-7.6015-1.2518-29.16-3.5664-10.715zm9.916-6.4434c-0.50836-0.0216-1.0903 0.44854-1.5195 1.5859-0.50217 1.3307-0.71554 2.7574-0.47266 3.1699 0.82503 1.4012 2.1864 0.75633 2.8555-1.3516 0.62383-1.9655-0.016-3.3683-0.86328-3.4043zm9.002 20.217c-0.87075 0.00058-2.8436 0.5919-5.6367 1.7734-3.0063 1.2717-5.6513 2.8699-5.8789 3.5527v0.002c-0.30741 0.92222 0.91153 1.1138 4.7383 0.7461 5.2185-0.50143 7.6853-1.6755 5.3047-2.5234-0.96146-0.34244-0.8312-0.80929 0.49804-1.7812 1.6147-1.1809 1.8454-1.7701 0.97461-1.7695zm-21.902 7.2695c-4.0054 0.13587-7.2628 2.7919-5.2402 6.0644 0.62734 1.015 3.4727 0.12699 3.4727-1.084 0-1.7284 4.1431-2.0364 7.1602-0.53125 5.4351 2.7114 5.5071 0.77463 0.10742-2.8945-1.7042-1.158-3.6794-1.6164-5.5-1.5547zm15.365 1.0449c-0.69975 0.0137-1.5666 0.20436-2.5508 0.58203-2.097 0.8047-2.0113 2.1506 0.16797 2.6348 2.477 0.55026 4.25-0.22164 4.25-1.8496 0-0.92127-0.70094-1.39-1.8672-1.3672zm-14.13 3.97c-0.55 0-1 0.45-1 1s0.45 1 1 1 1-0.45 1-1-0.45-1-1-1zm-9.2871 4.0879c-0.0386 0.004-0.0668 0.0176-0.0859 0.043-0.1533 0.20298-1.2951 2.0598-2.5371 4.125-1.1563 1.9227-4.428 5.5191-7.5059 8.2969l1.3457 1.793c0.37691-0.10339 0.69888-0.0753 0.96289 0.0879 0.5605 0.34641 1.7653-0.50982 2.6777-1.9023 2.3173-3.5366 3.813-3.1732 1.9297 0.46875-1.5899 3.0745-0.88673 3.9796 1.3594 1.75 1.0095-1.0021 1.131-0.91296 0.61328 0.44727-0.56653 1.4884-0.34103 1.5529 1.832 0.52734 2.8362-1.3385 6.0042-11.788 3.7969-12.523-0.62516-0.20838-1.8266-1.0688-2.668-1.9102-0.73619-0.7362-1.4507-1.2276-1.7207-1.2031zm17.883 0.17969c-0.40058 0.016-0.80115 0.0686-1.1894 0.16601-2.939 0.73765-3.0668 2.9721-0.41797 7.3164 2.2263 3.6514 3.4703 4.2704 2.5117 1.25-0.49505-1.5598-0.18067-2 1.4316-2 1.1371 0 2.0684-0.41296 2.0684-0.91797 0-0.50502 0.26042-1.596 0.57812-2.4238 0.67207-1.7514-2.1783-3.5023-4.9824-3.3906zm-9.0723 1.5957c-0.89001 0.0746-1.6695 0.87194-2.0781 2.5-0.80305 3.1996 0.28654 6.6367 2.1035 6.6367 0.77746 0 1.6959 1.125 2.041 2.5 0.40871 1.6284 1.3267 2.5 2.6348 2.5 1.6151 0 1.8767-0.44041 1.3359-2.25-0.36977-1.2375-1.2084-4.275-1.8652-6.75-0.89687-3.3793-2.6885-5.261-4.1719-5.1367z" fill="#ff0"/>
<path id="path4206" d="m197.25 67.596c-0.26-0.054-0.84 0.234-1.88 0.83-2.73 1.556-5.07 12.22-2.81 12.781 0.64 0.159 1.91 0.922 2.81 1.695 0.79 0.677 1.54 1.11 1.81 1.065 0.04-0.007 0.07-0.022 0.08-0.049 0.14-0.214 1.13-2.154 2.21-4.311 1-2.007 3.98-5.849 6.83-8.859l-1.48-1.682c-0.37 0.133-0.69 0.129-0.97-0.013-0.58-0.302-1.72 0.647-2.52 2.107-2.03 3.707-3.55 3.462-1.96-0.316 1.35-3.19 0.58-4.038-1.49-1.639-0.93 1.078-1.06 0.998-0.65-0.398 0.23-0.764 0.28-1.158 0.02-1.211zm27.87 11.404c-1.07 0-2.13 0.519-2.34 1.152-0.21 0.634-2.45 1.677-4.98 2.319-3.23 0.821-4.41 0.583-3.61-0.571l-2.09 0.202c-0.89 0.562-1.7 0.898-2.38 0.898-1.93 0-11.42 4.699-12.26 6.074-0.35 0.554-1.42 0.756-2.39 0.449-1.89-0.599-7.07 2.871-7.07 4.735 0 0.612-0.91 2.087-2.03 3.277-1.81 1.924-1.87 2.306-0.5 3.435 0.84 0.7 1.53 0.84 1.53 0.31 0-4.808 9.18-4.559 11.03 0.3 0.45 1.19 1.98 2.38 3.4 2.65 3.09 0.59 3.07 0.79 0.46-4.21-2.79-5.351-2-7.833 3.82-12.053 6.13-4.435 6.24-4.474 5.59-2.024-0.66 2.534-0.27 2.55 3.89 0.155 1.82-1.047 4.78-2.209 6.57-2.582 3.82-0.796 6.59-4.516 3.36-4.516zm-46.57 4.936c-0.87 0.046-1.3 0.541-0.91 1.576 0.42 1.082 0.12 1.336-1.03 0.892-2.37-0.907-6.61 0.41-6.61 2.051 0 0.779 1.58 1.988 3.51 2.686 4.09 1.477 3.15 2.299-3.76 3.297-2.61 0.377-4.75 1.157-4.75 1.736 0 0.603 1.3 0.862 3.04 0.605 1.68-0.245 3.28-0.071 3.56 0.387 0.29 0.458-0.11 0.834-0.88 0.834-0.76 0-3.39 1.912-5.83 4.25-2.44 2.34-5.33 4.79-6.41 5.44-1.43 0.86-1.56 1.2-0.48 1.22 0.82 0.02 3.3-1.08 5.5-2.44 2.2-1.35 5.22-2.46 6.7-2.46 3.07-0.01 7.8-1.92 7.8-3.15 0-0.44-1.15-0.37-2.56 0.17-3.67 1.39-3.98 1.23-1.94-1.03 1.98-2.189 6.1-2.693 6.73-0.822 0.6 1.812 2.03 0.424 4.73-4.569l2.47-4.552-2.9-3.03c-1.92-2-4.54-3.169-5.98-3.091zm38.95 7.064c-1.92 0-3.5 0.45-3.5 1s1.58 1 3.5 1 3.5-0.45 3.5-1-1.58-1-3.5-1zm-0.32 4.064c-6.3-0.063-8.15 0.729-9.39 4.026-0.8 2.12-0.04 3.12 4.71 6.2 4.88 3.16 5.82 3.3 5 0.71-0.52-1.65-0.18-2 1.93-2 3.27 0 3.3-1.35 0.07-2.82-3.32-1.51-3.15-2.492 0.75-4.434l3.25-1.619-6.32-0.063zm-23.35 6.076c-0.43-0.01-1.02 0.1-1.75 0.34-1.36 0.43-2.08 1.5-2.08 3.09 0 3.14 1.52 3.1 3.61-0.1 1.44-2.2 1.51-3.31 0.22-3.33zm-11.73 3.69c-0.83 0.08-2.32 0.83-4.61 2.29-3.88 2.46-4.61 3.3-3.28 3.77 1.24 0.44 1.46 1.02 0.77 2.11-1.56 2.47-1.21 6.03 0.52 5.36 1.79-0.69 1.98 0.76 0.32 2.42-0.65 0.65-0.83 1.53-0.39 1.95s1.31-0.06 1.94-1.07c3.81-6.17 5.67-6.38 3.14-0.35-1.99 4.79-1.91 5.36 0.49 3.19 1.96-1.77 2-1.75 2 1.46v3.26l1.97-2.36 1.96-2.36 0.04 2.25c0.05 3.63 1.61 2.59 3-2 1.21-4.02 1.33-4.12 2.18-1.84 0.87 2.32 0.95 2.34 2.29 0.5 1.33-1.82 1.43-1.78 2.09 0.84 1.18 4.73 2.76 3.15 2.24-2.25-0.6-6.25-0.36-6.24 2.4 0.17 1.22 2.84 2.39 4.66 2.59 4.05s1.01-0.86 1.8-0.56c0.79 0.31 1.44 0.24 1.44-0.14 0-1.45-7.39-13.84-7.7-12.91-0.57 1.71-9.55 0.77-10.96-1.15-1.11-1.52-1.5-1.57-2.97-0.36-1.55 1.28-1.59 1.2-0.53-0.8 0.93-1.74 0.89-2.36-0.19-3-0.75-0.44-1.54-1.38-1.76-2.08-0.07-0.22-0.23-0.35-0.48-0.39-0.09-0.02-0.19-0.02-0.31 0z" fill="#ff0"/>
</svg>
